<svg preserveAspectRatio="none" width="100%" height="100%" overflow="visible" style="display: block;" viewBox="0 0 232.143 81.4689" fill="none" xmlns="http://www.w3.org/2000/svg">
<path id="Vector" d="M218.119 9.24461C218.144 8.89188 218.17 8.53911 218.196 8.07949C219.608 7.57711 220.867 6.68996 222.601 6.76478C223.114 6.78616 223.332 6.11274 222.909 5.78139C222.613 5.55692 222.228 5.30042 221.869 5.27904C220.186 5.17215 218.517 4.88355 216.86 5.58901C215.884 6.00587 214.69 6.00585 213.611 5.6745C212.52 5.34314 211.171 5.64244 210.375 4.83009C210.375 4.19945 210.426 3.64366 210.362 3.09853C210.298 2.54271 210.105 2.00824 209.926 1.24933C210.683 1.36691 211.248 1.46314 211.801 1.54865C212.725 1.68761 213.611 1.81586 214.574 1.53795C215.55 1.24935 216.578 1.34554 217.579 1.63414C218.62 1.93343 219.711 1.94414 220.816 1.76243C222.061 1.55934 223.332 1.48448 224.578 1.34552C224.912 1.31345 225.31 1.32414 225.58 1.18519C226.594 0.650747 227.853 0.757666 228.88 0.255291C229.689 -0.140196 230.126 -0.0653842 230.691 0.404924C231.872 1.36692 232.424 2.44648 232.001 3.8681C231.551 5.38591 231.089 6.85028 230.318 8.30396C229.407 10.0356 228.482 11.7779 227.866 13.627C227.301 15.3266 226.209 16.8123 224.668 18.266C223.936 17.2719 223.82 16.3847 224.308 15.5189C225.028 14.2363 225.105 12.8039 225.734 11.4999C225.798 11.361 225.657 11.019 225.503 10.9548C225.233 10.8372 224.861 10.7945 224.565 10.8479C224.257 10.9121 223.936 11.0937 223.705 11.2861C222.549 12.3123 220.931 12.6436 219.506 13.2636C218.889 13.5308 218.029 13.4346 217.297 13.5094C216.95 13.8836 216.68 14.3752 216.231 14.6104C214.639 15.412 214.613 15.38 212.122 15.4013C210.003 16.8123 207.614 17.8705 205.007 18.5652C203.916 18.8645 202.991 19.7303 201.668 19.3562C200.667 19.7517 199.665 20.1258 198.676 20.5427C198.304 20.703 198.008 20.9702 197.687 21.1947H197.7C197.495 20.8847 197.289 20.5854 197.109 20.3182C196.159 20.0724 195.44 20.3824 195.029 20.9382C194.22 22.0284 192.872 22.3277 191.575 22.5736C189.006 23.0546 186.425 23.4928 183.985 24.3265C183.831 24.38 183.664 24.4441 183.497 24.4441C179.657 24.5296 176.331 26.0902 172.787 27.0308C172.222 27.1805 171.631 27.2446 171.053 27.3408C170.642 27.4049 170.142 27.3515 169.808 27.5225C168.344 28.2707 166.7 28.2066 165.095 28.3348C164.337 28.399 163.605 28.5807 162.86 28.6876C162.269 28.7731 161.679 28.8479 161.088 28.88C160.343 28.912 159.534 28.6769 158.943 29.2968C158.854 29.393 158.622 29.4465 158.468 29.4358C156.67 29.2862 155.155 29.8847 153.665 30.6116C153.344 30.7719 152.869 30.7291 152.356 30.804C153.845 31.488 153.832 31.4667 155.309 31.3598C155.682 31.3277 156.195 31.4453 156.452 31.6591C157.03 32.1187 157.646 32.3431 158.443 32.5035C159.123 32.6424 159.817 33.1128 160.24 33.5938C161.345 34.8337 161.435 34.9512 162.68 35.3574C163.233 35.5391 163.823 35.7208 164.247 36.0522C164.928 36.5866 165.544 37.1318 166.353 37.57C166.97 37.9014 167.368 38.5213 167.817 39.0344C168.408 39.7078 168.536 40.6377 169.448 41.1508C169.615 42.3052 171.233 42.9572 170.745 44.4429C170.398 45.5225 171.053 46.7517 171.002 47.9702C170.938 49.3491 170.129 50.6638 170.501 52.0747C170.565 52.3206 170.398 52.6199 170.283 52.8764C168.999 55.4845 167.65 58.0712 165.351 60.1982C163.977 61.4595 162.436 62.5926 161.127 63.9073C159.226 65.8099 156.516 66.7291 154.153 68.0438C153.717 68.2897 153.011 68.1935 152.24 68.279C151.842 69.1234 150.994 69.7006 149.851 70.1175C147.514 70.9833 145.241 71.956 142.84 72.7042C141.761 73.0355 140.708 73.1852 139.604 72.8432C139.039 73.26 138.846 73.9013 137.96 74.0937C135.738 74.5747 133.619 75.3016 131.308 75.5367C130.049 75.665 128.842 76.0925 127.622 76.4025C126.646 76.6484 125.709 77.0332 124.63 76.7125C124.412 76.6484 124.001 76.6483 123.898 76.7552C122.961 77.6959 121.676 77.2042 120.559 77.3752C118.8 77.6318 117.028 77.8562 115.255 78.0165C113.56 78.1662 111.865 78.2089 110.157 78.3265C109.746 78.3586 109.271 78.3906 108.937 78.583C106.831 79.8016 104.443 79.7802 102.041 79.7161C100.166 79.6626 98.2785 79.5985 96.4036 79.545C96.3137 79.545 96.2238 79.513 96.1468 79.5237C94.8497 79.7588 93.5656 79.855 92.2172 79.6092C91.2412 79.4275 90.201 79.5343 89.1865 79.4809C88.4288 79.4488 87.9537 79.0427 87.6069 78.5296C87.9151 78.5617 88.2105 78.5938 88.493 78.6151C88.493 78.5617 88.493 78.5189 88.493 78.4654C88.2105 78.4868 87.9152 78.5189 87.6326 78.5403C87.0547 78.7434 86.6823 79.0747 86.3869 79.545C86.1815 79.8657 85.6678 80.0474 85.3725 80.2505C84.7175 80.0367 85.0129 79.7588 85.0129 79.5023C85.0129 79.0106 84.4221 78.7006 84.0112 78.9571C83.6773 79.1709 83.4333 79.5023 83.0738 79.6733C82.65 79.8764 82.1363 80.1222 81.6997 80.0688C80.9805 79.994 80.377 79.9298 79.8505 80.4429C79.7477 80.5391 79.3111 80.5284 79.157 80.4322C78.4122 79.9726 77.7316 80.1971 76.9739 80.4108C76.3575 80.5925 75.6512 80.5926 74.9962 80.6888C74.0845 80.8277 73.1213 80.5925 72.2481 81.0308C71.9912 81.159 71.5546 81.1697 71.2464 81.1056C70.0393 80.8491 68.8964 80.9239 67.7534 81.3835C67.4195 81.5225 66.893 81.469 66.5078 81.3835C64.7356 80.9774 62.9634 81.2018 61.1784 81.2659C59.3163 81.3301 57.4414 81.1697 55.5794 81.1056C54.6419 81.0735 53.7044 81.0415 52.7798 80.988C49.9803 80.8491 47.1423 81.1483 44.3813 80.4963C44.1373 80.4429 43.8676 80.3681 43.6236 80.3894C40.6057 80.6139 37.6778 79.9085 34.7113 79.684C34.2105 79.652 33.7097 79.5343 33.2088 79.4381C31.2954 79.0854 29.382 78.6792 27.4557 78.38C26.5568 78.241 26.1458 77.8242 25.9147 77.1614C25.4138 77.247 24.8873 77.4821 24.4764 77.3752C21.4586 76.6056 18.4022 75.9002 15.4871 74.9168C12.0712 73.7624 8.97628 72.0842 6.27949 69.9678C4.54584 68.6103 2.63238 67.3918 1.28399 65.703C0.308009 64.4845 -0.0772338 63.1804 0.0126592 61.6626C0.423599 62.0902 0.84738 62.4964 1.23264 62.9346C2.13157 63.9821 3.06903 64.9869 4.41742 65.6709C4.63573 65.7778 4.85404 65.9061 5.02098 66.0664C6.62621 67.5949 8.80932 68.4073 10.9154 69.3052C11.2236 69.4334 11.5703 69.5296 11.8143 69.7006C14.6652 71.7315 18.2609 72.1804 21.6897 72.9928C23.2564 73.3669 24.8231 73.6982 26.2229 74.4144C26.5696 74.5961 27.0191 74.7564 27.4043 74.7351C29.9342 74.5854 32.3228 75.184 34.7113 75.6864C37.3824 76.2422 40.1049 76.3704 42.8146 76.6056C45.6911 76.8514 48.5805 76.9797 51.47 77.1614C51.7268 77.1721 51.9836 77.2469 52.2276 77.2042C54.796 76.8408 57.3387 77.1828 59.8942 77.2683C61.9232 77.3325 63.9522 77.4073 66.0069 77.0332C67.4581 76.7659 69.0505 77.0118 70.7071 77.0332C70.8868 77.4928 71.0024 77.8989 71.2079 78.2517C71.2978 78.4013 71.6188 78.5403 71.8372 78.5403C72.0169 78.5403 72.3636 78.3265 72.3636 78.2196C72.2994 77.3645 72.903 77.0866 73.7634 77.0225C75.8952 76.8621 78.0141 76.6805 80.1458 76.5843C82.0207 76.4987 83.8956 76.5949 85.7449 76.1994C86.7979 75.975 87.2987 76.1887 88.6471 76.8194C89.7002 75.8895 91.1256 75.7505 92.6152 75.7505C96.8787 75.7505 101.117 75.494 105.354 75.0237C107.55 74.7778 109.785 74.7564 111.981 74.5213C114.601 74.2541 117.31 74.1472 119.776 73.4738C122.229 72.8111 124.681 72.3835 127.198 71.9881C128.945 71.7208 130.601 71.0902 132.297 70.6199C132.952 70.4381 133.581 70.2244 134.236 70.0747C137.022 69.4334 139.873 68.9845 142.532 67.9797C143.841 67.4881 145.293 67.2957 146.487 66.5368C147.424 65.9382 148.811 66.0451 149.672 65.2541C151.816 64.6555 153.267 63.127 155.296 62.3574C156.118 62.0367 156.812 61.4381 157.479 60.8823C158.327 60.1769 159.252 59.5783 160.189 58.969C161.435 58.1674 162.591 57.2268 163.502 56.0617C164.697 54.5332 165.724 52.8764 167.316 51.5617C167.483 51.4227 167.676 51.2303 167.714 51.0379C167.997 49.7125 168.331 48.3978 168.472 47.0617C168.716 44.8598 168.113 42.8289 166.276 41.1508C165.634 40.5629 165.018 39.9857 165.236 39.0985C162.796 38.6496 160.549 38.0617 158.866 36.5332C159.239 36.5866 159.611 36.6401 159.984 36.6935C159.996 36.6401 159.996 36.5866 160.009 36.5332C159.637 36.5332 159.252 36.5332 158.879 36.5332C158.507 36.4477 158.122 36.3729 157.723 36.2874C157.878 35.9453 157.993 35.7102 158.16 35.3254C157.556 35.2933 157.043 35.165 156.593 35.2505C155.438 35.4643 154.397 35.3146 153.409 34.8016C152.086 34.1282 150.648 33.7541 149.068 33.6792C148.233 33.6365 147.322 33.5083 146.602 33.1769C144.406 32.1721 142.121 32.279 139.873 32.76C138.281 33.1021 136.676 33.1555 135.083 33.3265C134.749 33.3586 134.377 33.2731 134.069 33.3586C130.524 34.2992 126.839 34.2779 123.192 34.4168C120.816 34.513 118.44 34.5771 116.193 33.6899C115.898 33.5724 115.538 33.5403 115.204 33.5083C113.535 33.3586 112.571 32.4607 112.148 31.2422C111.57 29.6175 111.095 27.9394 111.608 26.2399C112.25 25.652 113.059 25.4382 113.92 25.3847C115.114 25.2992 116.308 25.2778 117.49 25.203C118.748 25.1175 119.853 25.2885 120.713 26.1543C120.919 26.3574 121.33 26.646 121.548 26.5926C122.575 26.336 122.794 27.1163 123.359 27.4584C123.461 27.5225 123.667 27.4691 123.988 27.4691C123.744 26.8064 123.5 26.165 123.217 25.4168C124.656 25.2885 125.722 25.6306 126.749 26.165C128.264 26.956 128.29 26.9239 130.152 26.6888C130.627 27.0094 131.115 27.3942 131.68 27.7042C132.245 28.0249 133.131 28.0142 133.491 27.5546C134.03 26.8919 134.762 26.9346 135.52 26.9346C136.393 26.9346 136.522 27.608 136.907 28.0249C136.714 27.95 136.547 27.8859 136.881 28.0142C136.701 27.9714 136.522 27.9286 136.881 28.0142C136.945 27.9714 137.01 27.9287 137.087 27.8859C137.819 27.3836 138.589 28.399 139.488 27.7683C140.04 27.3835 141.106 27.5011 141.941 27.3835C142.776 27.2553 143.61 27.0094 144.445 26.9987C145.434 26.988 146.435 27.1591 147.707 27.2873C148.079 27.2018 147.54 26.7422 147.976 26.2826C148.503 26.165 149.299 25.9833 150.018 25.8229C150.532 26.2184 150.943 26.5391 151.534 26.9987C151.778 26.4963 151.932 26.1971 152.073 25.8871C152.227 25.8336 152.381 25.7268 152.535 25.7375C153.036 25.7695 153.563 25.8016 154.051 25.9192C155.206 26.1971 156.221 25.994 157.235 25.5023C160.318 24.0058 162.963 23.1935 165.904 22.6697C167.034 22.4667 167.714 22.766 168.138 23.5997C167.393 23.5783 166.636 23.5569 165.891 23.5569C165.801 23.5569 165.711 23.728 165.621 23.8242C166.931 24.38 166.931 24.38 168.074 23.5569C168.523 22.6912 169.294 22.2529 170.424 22.1353C171.772 21.9963 173.134 21.8788 174.315 21.184C174.636 21.0023 175.137 21.0451 175.561 20.9702C177.14 20.6709 178.72 20.3503 180.299 20.0724C180.698 19.9976 181.352 19.8693 181.494 20.0189C182.123 20.6816 182.662 20.0403 182.983 19.8906C184.576 19.1959 186.13 18.5867 188.005 18.8646C188.236 18.8966 188.505 18.8004 188.737 18.7149C189.957 18.2339 191.138 17.6781 192.396 17.2612C192.897 17.0902 193.552 17.2291 194.181 17.2291C194.58 16.7909 194.888 16.2458 195.401 15.9679C195.954 15.6793 196.686 15.5937 197.353 15.5082C198.522 15.3693 199.665 15.0486 200.898 15.2944C201.758 15.4655 202.554 15.1127 203.325 14.76C203.389 14.3325 203.466 13.9156 203.53 13.4773C204.134 13.2208 204.789 13.0284 205.328 12.7078C206.279 12.1413 207.306 11.9168 208.462 11.9489C209.052 11.9702 209.656 11.8954 210.234 11.7778C210.709 11.6816 211.223 11.5854 211.21 10.9762C211.21 10.8158 211.646 10.6234 211.916 10.5059C212.892 10.0676 214.061 9.96075 214.96 9.55458C215.936 9.11633 216.783 8.90257 217.81 9.08428C217.888 9.09497 217.977 9.12699 218.067 9.14837C218.221 9.14837 218.376 9.15906 218.517 9.14837C218.542 9.14837 218.568 9.08425 218.607 9.05218C218.504 9.14838 218.311 9.19117 218.119 9.24461ZM41.0295 77.9524C41.0552 78.0593 41.0809 78.1662 41.1066 78.2838C41.4148 78.2517 41.723 78.2517 42.0183 78.1876C42.1339 78.1662 42.211 78.0059 42.3009 77.899C42.1725 77.8348 42.044 77.6852 41.9413 77.7066C41.6203 77.7493 41.3249 77.8669 41.0295 77.9524ZM221.085 8.95599C221.393 8.6567 221.65 8.49639 221.753 8.28262C221.804 8.17573 221.599 7.87642 221.445 7.83366C221.047 7.72677 220.79 7.96193 220.751 8.26122C220.726 8.42155 220.905 8.60326 221.085 8.95599ZM177.461 21.8146C177.911 21.8146 178.014 21.8467 178.065 21.8146C178.27 21.6757 178.463 21.5154 178.669 21.3657C178.45 21.3764 178.232 21.3657 178.026 21.4192C177.885 21.4406 177.795 21.5688 177.461 21.8146ZM173.75 23.1507C173.66 23.0652 173.596 22.9263 173.493 22.9049C173.391 22.8942 173.262 22.9904 173.134 23.0439C173.224 23.1294 173.288 23.279 173.391 23.2897C173.493 23.3218 173.635 23.2042 173.75 23.1507ZM159.072 33.9037C158.995 33.9892 158.841 34.1068 158.866 34.1602C158.918 34.2564 159.072 34.3206 159.175 34.3954C159.277 34.2671 159.38 34.1496 159.483 34.0213C159.354 33.9785 159.213 33.9465 159.072 33.9037ZM208.012 13.2636C208.038 13.1781 208.064 13.0926 208.089 13.007C207.82 12.9215 207.563 12.804 207.28 12.7505C207.165 12.7291 207.011 12.8574 206.882 12.9216C206.959 13.0284 207.023 13.1994 207.126 13.2208C207.409 13.2636 207.717 13.2529 208.012 13.2636ZM217.81 10.9334C217.708 10.8479 217.618 10.7624 217.515 10.6769C217.425 10.7624 217.348 10.8372 217.258 10.9227C217.31 10.9655 217.374 11.0403 217.425 11.0403C217.566 11.0082 217.682 10.9655 217.81 10.9334ZM170.167 23.7386C170.219 23.6317 170.296 23.5249 170.321 23.4073C170.334 23.3859 170.167 23.2897 170.142 23.3004C170.026 23.3539 169.923 23.4394 169.821 23.5142C169.936 23.5997 170.052 23.6638 170.167 23.7386ZM126.749 27.2766C126.633 27.3515 126.531 27.437 126.415 27.5118C126.543 27.5759 126.659 27.6507 126.787 27.6935C126.839 27.7042 126.98 27.5973 126.98 27.5973C126.903 27.4797 126.826 27.3835 126.749 27.2766ZM154.564 33.5831C154.603 33.4762 154.718 33.3265 154.667 33.2624C154.59 33.1662 154.41 33.1342 154.269 33.0807C154.23 33.1876 154.115 33.3372 154.153 33.3907C154.243 33.4869 154.41 33.5189 154.564 33.5831ZM68.9092 78.3158C68.7936 78.2517 68.6781 78.1983 68.5625 78.1341C68.5368 78.1876 68.4597 78.2838 68.4854 78.2945C68.5881 78.3693 68.7166 78.4227 68.8321 78.4868C68.8578 78.4227 68.8835 78.3693 68.9092 78.3158ZM126.852 30.9001C126.8 30.8788 126.736 30.836 126.698 30.8467C126.646 30.8681 126.62 30.9322 126.595 30.9857C126.685 31.0178 126.762 31.0391 126.852 31.0712C126.852 31.007 126.852 30.9536 126.852 30.9001ZM169.898 43.1068C169.846 43.0641 169.808 43.032 169.756 42.9999C169.718 43.0747 169.679 43.1496 169.628 43.2244C169.692 43.2351 169.769 43.2778 169.808 43.2564C169.859 43.2244 169.872 43.1496 169.898 43.1068ZM227.84 1.71963C227.827 1.6555 227.84 1.58072 227.801 1.54865C227.75 1.5059 227.66 1.50588 227.583 1.48451C227.596 1.58071 227.609 1.67687 227.622 1.77307C227.699 1.7517 227.776 1.73032 227.84 1.71963ZM215.062 11.5427C215.075 11.4893 215.088 11.4358 215.101 11.3717C214.972 11.361 214.857 11.3503 214.728 11.3396C214.716 11.3396 214.716 11.4358 214.703 11.4893C214.818 11.5213 214.934 11.532 215.062 11.5427ZM175.407 21.5474C175.342 21.5688 175.278 21.5902 175.214 21.6116C175.265 21.6971 175.317 21.7933 175.368 21.8788C175.445 21.804 175.509 21.7185 175.586 21.6437C175.522 21.6116 175.458 21.5795 175.407 21.5474ZM162.167 25.9085C162.192 25.855 162.244 25.7802 162.231 25.7375C162.218 25.6947 162.115 25.6733 162.051 25.6413C162.013 25.7375 161.974 25.8336 161.948 25.9298C162.025 25.9191 162.103 25.9085 162.167 25.9085ZM60.5748 80.0153L60.4721 79.855L60.3822 80.0153H60.5748ZM207.82 14.8242L207.653 14.7387L207.627 14.8883L207.82 14.8242ZM192.474 19.6662L192.371 19.7838L192.525 19.8052L192.474 19.6662Z" fill="var(--fill-0, #EF6445)"/>
</svg>
