<svg preserveAspectRatio="none" width="100%" height="100%" overflow="visible" style="display: block;" viewBox="0 0 567 567" fill="none" xmlns="http://www.w3.org/2000/svg">
<g id="Mask Group">
<mask id="mask0_0_33" style="mask-type:alpha" maskUnits="userSpaceOnUse" x="0" y="0" width="567" height="567">
<circle id="Ellipse 1" cx="283.5" cy="283.5" r="276" fill="var(--fill-0, #C4C4C4)" stroke="var(--stroke-0, #5E5BF1)" stroke-width="15"/>
</mask>
<g mask="url(#mask0_0_33)">
<g id="Group">
<path id="Vector" d="M-86.2031 137.059C-86.2031 137.059 39.5304 115.303 71.9713 39.1572C102.997 -33.8366 230.799 -53.457 230.799 -53.457" stroke="var(--stroke-0, #5E5BF1)" stroke-width="15" stroke-miterlimit="10"/>
<path id="Vector_2" d="M-86.2031 173.656C-86.2031 173.656 68.0523 148.546 107.786 56.6432C145.67 -31.0917 302.32 -53.457 302.32 -53.457" stroke="var(--stroke-0, #5E5BF1)" stroke-width="15" stroke-miterlimit="10"/>
<path id="Vector_3" d="M-86.2031 210.357C-86.2031 210.357 96.4649 181.79 143.493 74.3326C188.343 -28.4481 373.842 -53.457 373.842 -53.457" stroke="var(--stroke-0, #5E5BF1)" stroke-width="15" stroke-miterlimit="10"/>
<path id="Vector_4" d="M-86.2031 246.956C-86.2031 246.956 124.986 215.034 179.308 91.8187C231.017 -25.7031 445.363 -53.457 445.363 -53.457" stroke="var(--stroke-0, #5E5BF1)" stroke-width="15" stroke-miterlimit="10"/>
<path id="Vector_5" d="M-86.2031 283.554C-86.2031 283.554 153.508 248.278 215.123 109.406C273.69 -22.9582 516.776 -53.457 516.776 -53.457" stroke="var(--stroke-0, #5E5BF1)" stroke-width="15" stroke-miterlimit="10"/>
<path id="Vector_6" d="M-86.2031 320.254C-86.2031 320.254 181.92 281.622 250.829 126.993C316.472 -20.3153 588.297 -53.457 588.297 -53.457" stroke="var(--stroke-0, #5E5BF1)" stroke-width="15" stroke-miterlimit="10"/>
<path id="Vector_7" d="M-86.2031 356.853C-86.2031 356.853 210.442 314.764 286.644 144.582C359.146 -17.5704 659.818 -53.457 659.818 -53.457" stroke="var(--stroke-0, #5E5BF1)" stroke-width="15" stroke-miterlimit="10"/>
<path id="Vector_8" d="M-86.2031 393.451C-86.2031 393.451 238.964 348.008 322.35 162.068C401.819 -14.8255 731.34 -53.457 731.34 -53.457" stroke="var(--stroke-0, #5E5BF1)" stroke-width="15" stroke-miterlimit="10"/>
<path id="Vector_9" d="M-86.2031 430.152C-86.2031 430.152 267.376 381.354 358.166 179.756C444.492 -12.1825 802.753 -53.457 802.753 -53.457" stroke="var(--stroke-0, #5E5BF1)" stroke-width="15" stroke-miterlimit="10"/>
<path id="Vector_10" d="M-86.2031 466.747C-86.2031 466.747 295.898 414.598 393.872 197.344C487.165 -9.43759 874.274 -53.457 874.274 -53.457" stroke="var(--stroke-0, #5E5BF1)" stroke-width="15" stroke-miterlimit="10"/>
<path id="Vector_11" d="M-86.2031 503.448C-86.2031 503.448 324.419 447.84 429.688 214.932C529.839 -6.69271 945.795 -53.457 945.795 -53.457" stroke="var(--stroke-0, #5E5BF1)" stroke-width="15" stroke-miterlimit="10"/>
<path id="Vector_12" d="M-86.2031 540.05C-86.2031 540.05 352.832 481.085 465.393 232.52C572.512 -4.04903 1017.31 -53.457 1017.31 -53.457" stroke="var(--stroke-0, #5E5BF1)" stroke-width="15" stroke-miterlimit="10"/>
<path id="Vector_13" d="M-86.2031 576.644C-86.2031 576.644 381.353 514.329 501.209 250.005C615.186 -1.30412 1088.84 -53.457 1088.84 -53.457" stroke="var(--stroke-0, #5E5BF1)" stroke-width="15" stroke-miterlimit="10"/>
<path id="Vector_14" d="M-86.2031 613.344C-86.2031 613.344 409.875 547.572 537.024 267.695C657.859 1.44082 1160.25 -53.457 1160.25 -53.457" stroke="var(--stroke-0, #5E5BF1)" stroke-width="15" stroke-miterlimit="10"/>
<path id="Vector_15" d="M-86.2031 649.946C-86.2031 649.946 438.287 580.816 572.73 285.181C700.533 4.08372 1231.77 -53.457 1231.77 -53.457" stroke="var(--stroke-0, #5E5BF1)" stroke-width="15" stroke-miterlimit="10"/>
<path id="Vector_16" d="M-86.2031 686.547C-86.2031 686.547 466.809 614.06 608.545 302.768C743.206 6.82869 1303.29 -53.457 1303.29 -53.457" stroke="var(--stroke-0, #5E5BF1)" stroke-width="15" stroke-miterlimit="10"/>
<path id="Vector_17" d="M-86.2031 723.248C-86.2031 723.248 495.33 647.403 644.251 320.356C785.879 9.57361 1374.81 -53.457 1374.81 -53.457" stroke="var(--stroke-0, #5E5BF1)" stroke-width="15" stroke-miterlimit="10"/>
<path id="Vector_18" d="M-86.2031 759.842C-86.2031 759.842 523.743 680.547 680.066 337.943C828.553 12.2165 1446.23 -53.457 1446.23 -53.457" stroke="var(--stroke-0, #5E5BF1)" stroke-width="15" stroke-miterlimit="10"/>
</g>
</g>
</g>
</svg>
