<svg preserveAspectRatio="none" width="100%" height="100%" overflow="visible" style="display: block;" viewBox="0 0 12.6667 10.6701" fill="none" xmlns="http://www.w3.org/2000/svg">
<g id="Group 1">
<path id="Vector 11" d="M1.93333 1.53015L0.429814 0.778391C0.385488 0.756228 0.333333 0.788461 0.333333 0.838019V9.0755C0.333333 9.10728 0.355764 9.13464 0.386926 9.14087L6.33333 10.3302L12.2797 9.14087C12.3109 9.13464 12.3333 9.10728 12.3333 9.0755V0.83802C12.3333 0.788461 12.2812 0.756227 12.2369 0.778391L10.7333 1.53015M6.33333 10.3302V1.93015M6.33333 10.3302L7.1765 9.62752C8.19818 8.77612 9.41642 8.19353 10.7205 7.93271C10.728 7.93122 10.7333 7.92468 10.7333 7.91709V1.53015M6.33333 10.3302L6.03031 10.0271C4.92664 8.92345 3.50569 8.19221 1.9661 7.93561C1.94719 7.93246 1.93333 7.9161 1.93333 7.89694V1.53015M10.7333 1.53015V0.35154C10.7333 0.340343 10.7233 0.331826 10.7122 0.333667L10.634 0.346709C9.1138 0.600073 7.65486 1.13723 6.33333 1.93015M6.33333 1.93015C5.0118 1.13723 3.55287 0.600073 2.03269 0.346709L1.95443 0.333667C1.94339 0.331826 1.93333 0.340343 1.93333 0.35154V1.53015" stroke="var(--stroke-0, white)" stroke-width="0.666667"/>
</g>
</svg>
