<svg preserveAspectRatio="none" width="100%" height="100%" overflow="visible" style="display: block;" viewBox="0 0 24 24" fill="none" xmlns="http://www.w3.org/2000/svg">
<g id="ai">
<path id="Vector" d="M9.775 14.553C10.006 14.058 10.122 13.81 10.281 13.733C10.3492 13.6998 10.4241 13.6825 10.5 13.6825C10.5759 13.6825 10.6508 13.6998 10.719 13.733C10.879 13.81 10.994 14.058 11.225 14.553L12.047 16.316C12.093 16.414 12.116 16.462 12.147 16.504C12.1753 16.5411 12.2086 16.5741 12.246 16.602C12.288 16.634 12.336 16.657 12.434 16.702L14.197 17.525C14.692 17.756 14.94 17.872 15.017 18.031C15.0502 18.0992 15.0675 18.1741 15.0675 18.25C15.0675 18.3259 15.0502 18.4008 15.017 18.469C14.94 18.629 14.692 18.744 14.197 18.975L12.434 19.797C12.336 19.843 12.288 19.866 12.246 19.897C12.2085 19.9252 12.1752 19.9585 12.147 19.996C12.116 20.038 12.093 20.086 12.047 20.184L11.225 21.947C10.994 22.442 10.878 22.689 10.719 22.767C10.6508 22.8002 10.5759 22.8175 10.5 22.8175C10.4241 22.8175 10.3492 22.8002 10.281 22.767C10.121 22.689 10.006 22.442 9.775 21.947L8.952 20.184C8.92545 20.118 8.89193 20.0549 8.852 19.996C8.82411 19.9586 8.79113 19.9253 8.754 19.897C8.712 19.866 8.664 19.843 8.566 19.797L6.803 18.975C6.308 18.744 6.06 18.628 5.983 18.469C5.94976 18.4008 5.93249 18.3259 5.93249 18.25C5.93249 18.1741 5.94976 18.0992 5.983 18.031C6.06 17.871 6.308 17.756 6.803 17.525L8.566 16.702C8.663 16.657 8.712 16.634 8.754 16.602C8.79141 16.5741 8.82473 16.5411 8.853 16.504C8.884 16.462 8.907 16.414 8.953 16.316L9.775 14.553ZM17.525 7.553C17.756 7.058 17.872 6.81 18.031 6.733C18.0992 6.69976 18.1741 6.68249 18.25 6.68249C18.3259 6.68249 18.4008 6.69976 18.469 6.733C18.629 6.81 18.744 7.058 18.975 7.553L20.036 9.827C20.082 9.925 20.105 9.974 20.136 10.015C20.1639 10.0524 20.1969 10.0857 20.234 10.114C20.276 10.145 20.325 10.168 20.423 10.214L22.697 11.275C23.192 11.506 23.439 11.622 23.517 11.781C23.5502 11.8492 23.5675 11.9241 23.5675 12C23.5675 12.0759 23.5502 12.1508 23.517 12.219C23.439 12.379 23.192 12.494 22.697 12.725L20.423 13.786C20.325 13.832 20.276 13.855 20.234 13.886C20.1969 13.914 20.164 13.9469 20.136 13.984C20.105 14.026 20.082 14.075 20.036 14.173L18.975 16.447C18.744 16.942 18.628 17.189 18.469 17.267C18.4008 17.3002 18.3259 17.3175 18.25 17.3175C18.1741 17.3175 18.0992 17.3002 18.031 17.267C17.871 17.189 17.756 16.942 17.525 16.447L16.464 14.173C16.418 14.075 16.395 14.026 16.364 13.984C16.3357 13.9469 16.3024 13.9139 16.265 13.886C16.224 13.855 16.175 13.832 16.077 13.786L13.803 12.725C13.308 12.494 13.06 12.378 12.983 12.219C12.9498 12.1508 12.9325 12.0759 12.9325 12C12.9325 11.9241 12.9498 11.8492 12.983 11.781C13.06 11.621 13.308 11.506 13.803 11.275L16.077 10.214C16.175 10.168 16.224 10.145 16.265 10.114C16.3025 10.0858 16.3358 10.0525 16.364 10.015C16.395 9.974 16.418 9.925 16.464 9.827L17.525 7.553ZM6.525 2.053C6.756 1.558 6.872 1.31 7.031 1.233C7.09922 1.19976 7.17411 1.18249 7.25 1.18249C7.32589 1.18249 7.40078 1.19976 7.469 1.233C7.629 1.31 7.744 1.558 7.975 2.053L9.275 4.839C9.32 4.936 9.343 4.985 9.375 5.027C9.40296 5.06406 9.43594 5.09704 9.473 5.125C9.515 5.157 9.563 5.18 9.661 5.225L12.447 6.525C12.942 6.756 13.19 6.872 13.267 7.031C13.3002 7.09922 13.3175 7.17411 13.3175 7.25C13.3175 7.32589 13.3002 7.40078 13.267 7.469C13.19 7.629 12.942 7.744 12.447 7.975L9.661 9.275C9.564 9.32 9.515 9.343 9.473 9.375C9.43594 9.40296 9.40296 9.43594 9.375 9.473C9.343 9.515 9.32 9.563 9.275 9.661L7.975 12.447C7.744 12.942 7.628 13.19 7.469 13.267C7.40078 13.3002 7.32589 13.3175 7.25 13.3175C7.17411 13.3175 7.09922 13.3002 7.031 13.267C6.871 13.19 6.756 12.942 6.525 12.447L5.225 9.661C5.18 9.564 5.157 9.515 5.125 9.473C5.09704 9.43594 5.06406 9.40296 5.027 9.375C4.985 9.343 4.937 9.32 4.839 9.275L2.053 7.975C1.558 7.744 1.31 7.628 1.233 7.469C1.19976 7.40078 1.18249 7.32589 1.18249 7.25C1.18249 7.17411 1.19976 7.09922 1.233 7.031C1.31 6.871 1.558 6.756 2.053 6.525L4.839 5.225C4.936 5.18 4.985 5.157 5.027 5.125C5.06406 5.09704 5.09704 5.06406 5.125 5.027C5.157 4.985 5.18 4.937 5.225 4.839L6.525 2.053Z" fill="var(--fill-0, white)"/>
</g>
</svg>
