<svg preserveAspectRatio="none" width="100%" height="100%" overflow="visible" style="display: block;" viewBox="0 0 13.0013 15.0007" fill="none" xmlns="http://www.w3.org/2000/svg">
<path id="Vector" d="M11.3822 3.20813C11.281 3.1558 11.1824 3.09843 11.0869 3.03625C10.8092 2.85264 10.5545 2.6363 10.3285 2.39188C9.76285 1.74469 9.5516 1.08813 9.47378 0.628438H9.47691C9.41191 0.246875 9.43878 0 9.44285 0H6.8666V9.96187C6.8666 10.0956 6.8666 10.2278 6.86097 10.3584C6.86097 10.3747 6.85941 10.3897 6.85847 10.4072C6.85847 10.4144 6.85847 10.4219 6.85691 10.4294V10.435C6.82975 10.7924 6.71518 11.1377 6.52326 11.4405C6.33134 11.7432 6.06796 11.9942 5.75629 12.1713C5.43146 12.356 5.06407 12.453 4.69035 12.4525C3.49004 12.4525 2.51722 11.4738 2.51722 10.265C2.51722 9.05625 3.49004 8.0775 4.69035 8.0775C4.91756 8.07729 5.14338 8.11304 5.35941 8.18344L5.36253 5.56031C4.70671 5.4756 4.04045 5.52772 3.40578 5.71339C2.7711 5.89906 2.1818 6.21424 1.67503 6.63906C1.23099 7.02488 0.857685 7.48522 0.57191 7.99938C0.46316 8.18688 0.0528475 8.94031 0.00315996 10.1631C-0.02809 10.8572 0.180347 11.5763 0.279722 11.8734V11.8797C0.342222 12.0547 0.58441 12.6519 0.979097 13.1553C1.29736 13.5591 1.67337 13.9139 2.09503 14.2081V14.2019L2.10128 14.2081C3.34847 15.0556 4.73129 15 4.73129 15C4.97066 14.9903 5.77254 15 6.68316 14.5684C7.69316 14.09 8.26816 13.3772 8.26816 13.3772C8.6355 12.9513 8.92759 12.4659 9.13191 11.9419C9.36503 11.3291 9.44285 10.5941 9.44285 10.3003V5.01531C9.4741 5.03406 9.89035 5.30937 9.89035 5.30937C9.89035 5.30937 10.49 5.69375 11.4257 5.94406C12.0969 6.12219 13.0013 6.15969 13.0013 6.15969V3.60219C12.6844 3.63656 12.041 3.53656 11.3822 3.20813V3.20813Z" fill="var(--fill-0, white)"/>
</svg>
