<svg preserveAspectRatio="none" width="100%" height="100%" overflow="visible" style="display: block;" viewBox="0 0 13 13" fill="none" xmlns="http://www.w3.org/2000/svg">
<g id="Instagram">
<g id="Vector">
<path d="M6.5 5C5.67157 5 5 5.67157 5 6.5C5 7.32843 5.67157 8 6.5 8C7.32843 8 8 7.32843 8 6.5C8 5.67157 7.32843 5 6.5 5Z" fill="var(--fill-0, white)"/>
<path fill-rule="evenodd" clip-rule="evenodd" d="M6.46983 8.82245e-08C5.24548 -5.35567e-06 4.28574 -9.68576e-06 3.52432 0.0824855C2.74729 0.166671 2.11771 0.341549 1.58016 0.732102C1.25473 0.96854 0.96854 1.25473 0.732102 1.58016C0.341549 2.11771 0.166671 2.74729 0.0824855 3.52432C-9.68576e-06 4.28574 -5.35567e-06 5.24548 8.82245e-08 6.46983V6.53017C-5.35567e-06 7.75452 -9.68576e-06 8.71426 0.0824855 9.47568C0.166671 10.2527 0.341549 10.8823 0.732102 11.4198C0.96854 11.7453 1.25473 12.0315 1.58016 12.2679C2.11771 12.6585 2.74729 12.8333 3.52432 12.9175C4.28573 13 5.24544 13 6.46977 13H6.53018C7.75451 13 8.71427 13 9.47568 12.9175C10.2527 12.8333 10.8823 12.6585 11.4198 12.2679C11.7453 12.0315 12.0315 11.7453 12.2679 11.4198C12.6585 10.8823 12.8333 10.2527 12.9175 9.47568C13 8.71427 13 7.75456 13 6.53023V6.46982C13 5.24549 13 4.28573 12.9175 3.52432C12.8333 2.74729 12.6585 2.11771 12.2679 1.58016C12.0315 1.25473 11.7453 0.96854 11.4198 0.732102C10.8823 0.341549 10.2527 0.166671 9.47568 0.0824855C8.71426 -9.68576e-06 7.75452 -5.35567e-06 6.53017 8.82245e-08H6.46983ZM4 6.5C4 5.11929 5.11929 4 6.5 4C7.88071 4 9 5.11929 9 6.5C9 7.88071 7.88071 9 6.5 9C5.11929 9 4 7.88071 4 6.5ZM9.83333 3.83333C9.46514 3.83333 9.16667 3.53486 9.16667 3.16667C9.16667 2.79848 9.46514 2.5 9.83333 2.5C10.2015 2.5 10.5 2.79848 10.5 3.16667C10.5 3.53486 10.2015 3.83333 9.83333 3.83333Z" fill="var(--fill-0, white)"/>
</g>
</g>
</svg>
