<svg preserveAspectRatio="none" width="100%" height="100%" overflow="visible" style="display: block;" viewBox="0 0 567 567" fill="none" xmlns="http://www.w3.org/2000/svg">
<g id="Mask Group">
<mask id="mask0_0_23" style="mask-type:alpha" maskUnits="userSpaceOnUse" x="0" y="0" width="567" height="567">
<circle id="Ellipse 1" cx="283.5" cy="283.5" r="276" fill="var(--fill-0, #C4C4C4)" stroke="var(--stroke-0, #262626)" stroke-width="15"/>
</mask>
<g mask="url(#mask0_0_23)">
<g id="Group">
<path id="Vector" d="M-75.8756 137.058C-75.8756 137.058 41.5714 115.302 71.8743 39.1564C100.855 -33.8375 220.234 -53.4579 220.234 -53.4579" stroke="var(--stroke-0, #262626)" stroke-width="15" stroke-miterlimit="10"/>
<path id="Vector_2" d="M-75.8756 173.656C-75.8756 173.656 68.2136 148.545 105.329 56.6424C140.716 -31.0926 287.042 -53.4579 287.042 -53.4579" stroke="var(--stroke-0, #262626)" stroke-width="15" stroke-miterlimit="10"/>
<path id="Vector_3" d="M-75.8756 210.356C-75.8756 210.356 94.7536 181.789 138.682 74.3318C180.577 -28.4489 353.85 -53.4579 353.85 -53.4579" stroke="var(--stroke-0, #262626)" stroke-width="15" stroke-miterlimit="10"/>
<path id="Vector_4" d="M-75.8756 246.955C-75.8756 246.955 121.395 215.033 172.137 91.8179C220.438 -25.704 420.658 -53.4579 420.658 -53.4579" stroke="var(--stroke-0, #262626)" stroke-width="15" stroke-miterlimit="10"/>
<path id="Vector_5" d="M-75.8756 283.553C-75.8756 283.553 148.037 248.277 205.591 109.405C260.298 -22.959 487.364 -53.4579 487.364 -53.4579" stroke="var(--stroke-0, #262626)" stroke-width="15" stroke-miterlimit="10"/>
<path id="Vector_6" d="M-75.8756 320.253C-75.8756 320.253 174.577 281.622 238.945 126.993C300.261 -20.3162 554.172 -53.4579 554.172 -53.4579" stroke="var(--stroke-0, #262626)" stroke-width="15" stroke-miterlimit="10"/>
<path id="Vector_7" d="M-75.8756 356.852C-75.8756 356.852 201.219 314.763 272.399 144.581C340.122 -17.5712 620.979 -53.4579 620.979 -53.4579" stroke="var(--stroke-0, #262626)" stroke-width="15" stroke-miterlimit="10"/>
<path id="Vector_8" d="M-75.8756 393.45C-75.8756 393.45 227.861 348.007 305.752 162.067C379.983 -14.8263 687.787 -53.4579 687.787 -53.4579" stroke="var(--stroke-0, #262626)" stroke-width="15" stroke-miterlimit="10"/>
<path id="Vector_9" d="M-75.8756 430.151C-75.8756 430.151 254.401 381.353 339.207 179.755C419.844 -12.1834 754.494 -53.4579 754.494 -53.4579" stroke="var(--stroke-0, #262626)" stroke-width="15" stroke-miterlimit="10"/>
<path id="Vector_10" d="M-75.8756 466.747C-75.8756 466.747 281.043 414.597 372.56 197.344C459.705 -9.43842 821.301 -53.4579 821.301 -53.4579" stroke="var(--stroke-0, #262626)" stroke-width="15" stroke-miterlimit="10"/>
<path id="Vector_11" d="M-75.8756 503.447C-75.8756 503.447 307.684 447.84 406.015 214.931C499.566 -6.69354 888.109 -53.4579 888.109 -53.4579" stroke="var(--stroke-0, #262626)" stroke-width="15" stroke-miterlimit="10"/>
<path id="Vector_12" d="M-75.8756 540.049C-75.8756 540.049 334.225 481.084 439.368 232.519C539.427 -4.04987 954.915 -53.4579 954.915 -53.4579" stroke="var(--stroke-0, #262626)" stroke-width="15" stroke-miterlimit="10"/>
<path id="Vector_13" d="M-75.8756 576.643C-75.8756 576.643 360.866 514.328 472.823 250.004C579.288 -1.30495 1021.72 -53.4579 1021.72 -53.4579" stroke="var(--stroke-0, #262626)" stroke-width="15" stroke-miterlimit="10"/>
<path id="Vector_14" d="M-75.8756 613.343C-75.8756 613.343 387.508 547.572 506.278 267.694C619.149 1.43999 1088.43 -53.4579 1088.43 -53.4579" stroke="var(--stroke-0, #262626)" stroke-width="15" stroke-miterlimit="10"/>
<path id="Vector_15" d="M-75.8756 649.945C-75.8756 649.945 414.048 580.815 539.63 285.18C659.01 4.08289 1155.24 -53.4579 1155.24 -53.4579" stroke="var(--stroke-0, #262626)" stroke-width="15" stroke-miterlimit="10"/>
<path id="Vector_16" d="M-75.8756 686.547C-75.8756 686.547 440.69 614.059 573.085 302.767C698.871 6.82786 1222.05 -53.4579 1222.05 -53.4579" stroke="var(--stroke-0, #262626)" stroke-width="15" stroke-miterlimit="10"/>
<path id="Vector_17" d="M-75.8756 723.247C-75.8756 723.247 467.332 647.402 606.438 320.355C738.732 9.57277 1288.85 -53.4579 1288.85 -53.4579" stroke="var(--stroke-0, #262626)" stroke-width="15" stroke-miterlimit="10"/>
<path id="Vector_18" d="M-75.8756 759.841C-75.8756 759.841 493.872 680.547 639.893 337.943C778.593 12.2156 1355.56 -53.4579 1355.56 -53.4579" stroke="var(--stroke-0, #262626)" stroke-width="15" stroke-miterlimit="10"/>
</g>
</g>
</g>
</svg>
