<svg preserveAspectRatio="none" width="100%" height="100%" overflow="visible" style="display: block;" viewBox="0 0 226 79" fill="none" xmlns="http://www.w3.org/2000/svg">
<g id="Vector">
<path d="M73.0406 47.692C74.2549 44.2113 76.8674 41.5314 80.1055 39.252C88.4582 33.4302 97.8045 28.9946 107.739 25.4215C111.272 24.1585 114.841 22.988 119.073 21.5095C117.564 20.4622 116.828 19.6921 115.835 19.2916C110.315 17.0738 104.501 15.5029 98.5404 14.394C91.8435 13.1619 85.1834 11.8681 78.2289 11.8681C73.3718 11.8681 68.4779 12.2994 63.6207 11.2213C61.6705 10.79 59.3156 11.6525 57.1446 11.8065C49.0862 12.3918 41.0278 12.8846 32.9695 13.4699C31.5344 13.5623 30.0993 13.8395 28.6643 14.1168C24.1384 15.01 19.6492 16.0265 15.0865 16.7966C11.2229 17.4435 7.43284 18.0595 4.19477 20.1541C3.12768 20.8626 1.61904 21.3555 0 19.8769C2.75972 17.1046 6.66012 15.8417 10.5605 14.9792C24.2487 11.9297 38.0473 9.06507 52.2507 8.26419C55.4152 8.07937 58.6164 8.11018 61.8177 8.07938C67.4475 8.04858 73.0774 7.98694 78.7072 8.04854C82.1293 8.07935 85.5881 8.14095 88.9734 8.51059C102.11 9.95833 115.025 12.2686 127.058 17.1663C129.633 18.2136 132.135 18.4908 134.858 17.8131C145.014 15.3181 155.611 14.856 165.988 13.3467C174.672 12.0838 183.356 10.9133 192.04 9.77354C194.358 9.46551 196.676 9.3423 200.576 9.00347C194.395 6.2928 188.139 7.18607 183.834 3.85934C186.999 1.02547 189.685 -0.114246 193.401 0.00896607C195.83 0.0705721 198.332 0.193799 200.687 0.71745C205.47 1.76475 210.327 2.01115 215.221 2.19597C220.115 2.38079 224.862 5.64591 225.892 9.43468C226.113 10.2048 225.966 11.0673 225.708 11.8373C225.009 14.086 223.39 15.8725 221.293 17.3819C216.288 20.955 211.431 24.6822 206.28 28.1013C201.901 31.0276 197.302 33.7075 192.739 36.4181C191.856 36.9418 190.715 37.219 189.096 37.8043C189.317 36.6646 189.243 36.0177 189.538 35.6172C194.1 29.9187 200.429 25.6987 206.537 21.2938C208.598 19.7845 210.438 18.2752 210.438 15.5029C209.371 15.2257 208.488 14.7944 207.641 14.8252C203.741 14.9484 199.804 15.0717 195.94 15.4721C191.083 15.9649 186.299 16.4886 181.406 16.7658C173.678 17.2279 166.025 19.0144 158.298 19.4765C153.551 19.7845 149.246 21.0166 144.72 21.8175C142.586 22.1871 140.562 22.9264 137.986 23.6349C138.464 24.6822 138.575 25.7295 139.237 26.3763C141.518 28.5942 143.137 31.0276 143.837 33.9539C144.168 35.34 145.088 36.6029 145.787 37.9275C150.239 46.4599 148.657 54.3455 142.144 61.6458C137.508 66.8515 131.473 70.6403 124.261 73.0121C120.618 74.2134 116.939 75.5072 113.149 76.2156C108.954 76.9857 104.722 77.6017 100.601 78.5874C96.4062 79.5731 92.3218 78.495 88.2006 78.4026C86.7288 78.3718 85.2201 78.033 85.1833 76C86.0297 75.9384 86.9128 75.8768 87.7959 75.846C90.9604 75.7228 94.2352 76.0308 97.2893 75.4456C104.133 74.0902 111.162 73.3818 117.895 71.4104C125.328 69.2542 131.436 65.835 136.551 60.9989C140.93 56.8713 142.99 49.6018 141.04 44.3653C139.605 40.4841 138.98 36.4181 135.925 32.9374C133.828 30.5348 131.142 28.8406 128.566 27.0232C127.131 26.0067 125.365 26.0375 123.672 26.4996C115.54 28.6558 107.004 30.0111 99.4603 33.5535C93.9409 36.1409 88.6054 39.098 83.2332 41.9319C79.7375 43.78 76.2787 45.6591 72.8198 47.5072L73.0406 47.692Z" fill="var(--fill-0, white)"/>
<path d="M72.8566 47.5073C72.783 48.7086 73.0406 49.9716 72.599 51.0497C71.2008 54.4072 68.809 57.4875 69.2138 61.3379C66.4908 57.6415 66.3805 56.4094 67.6315 52.7746C68.4779 50.3104 69.6185 48.1542 73.0774 47.6921C73.0406 47.6921 72.8566 47.5073 72.8566 47.5073Z" fill="var(--fill-0, white)"/>
<path d="M65.8285 69.9319C66.8956 70.6711 68.0731 71.2872 68.993 72.1497C71.348 74.4291 74.0341 75.9385 77.7873 75.9077C78.6704 75.9077 79.6271 76.4005 80.4366 76.801C80.7678 76.955 80.8782 77.4786 81.2094 78.0331C78.56 79.5424 76.0947 78.3411 73.7029 77.6326C69.5817 76.4313 66.6012 74.1827 65.8285 69.9319Z" fill="var(--fill-0, white)"/>
<path d="M72.7094 70.3322C74.5124 70.7635 76.3523 71.1331 78.0817 71.6876C78.4496 71.8108 78.5232 72.6117 78.7072 73.1045C78.0449 73.1969 77.3457 73.505 76.7938 73.3817C74.8068 72.9505 73.7397 71.626 72.8566 70.1782L72.7094 70.3322Z" fill="var(--fill-0, white)"/>
<path d="M72.8566 70.1782C71.8999 69.3157 70.8328 68.5148 69.9865 67.5907C69.7657 67.3443 70.3545 66.6358 70.5752 66.1122C71.164 66.3586 72.1943 66.4818 72.3047 66.8207C72.6358 67.9604 72.599 69.1309 72.7094 70.3322L72.8566 70.1782Z" fill="var(--fill-0, white)"/>
<path d="M127.941 10.9131C127.352 11.2827 126.984 11.4983 126.616 11.7139C126.285 11.2827 125.843 10.8823 125.622 10.3894C125.586 10.297 126.469 9.71175 126.616 9.77336C127.131 10.0506 127.499 10.5126 127.941 10.9131Z" fill="var(--fill-0, white)"/>
</g>
</svg>
