<svg preserveAspectRatio="none" width="100%" height="100%" overflow="visible" style="display: block;" viewBox="0 0 112 44" fill="none" xmlns="http://www.w3.org/2000/svg">
<g id="Logo" clip-path="url(#clip0_0_16)">
<path id="Vector" d="M55.5208 30.1969H68.3164V26.3335H60.0686V11.7813H55.5208V30.1969Z" fill="var(--fill-0, white)"/>
<path id="Vector_2" d="M75.8974 27.6215C74.0731 27.6215 73.1225 26.0246 73.1225 23.6293C73.1225 21.234 74.0731 19.6114 75.8974 19.6114C77.7217 19.6114 78.6981 21.234 78.6981 23.6293C78.6981 26.0246 77.7217 27.6215 75.8974 27.6215ZM75.9231 30.6092C80.1626 30.6092 82.9376 27.5958 82.9376 23.6293C82.9376 19.6629 80.1626 16.6494 75.9231 16.6494C71.7093 16.6494 68.8829 19.6629 68.8829 23.6293C68.8829 27.5958 71.7093 30.6092 75.9231 30.6092Z" fill="var(--fill-0, white)"/>
<path id="Vector_3" d="M90.276 34.7553C92.2287 34.7553 93.9502 34.3175 95.1065 33.2872C96.1599 32.3343 96.8537 30.8919 96.8537 28.9087V17.0094H92.8454V18.426H92.794C92.0232 17.3185 90.8413 16.623 89.0941 16.623C85.8309 16.623 83.5698 19.3532 83.5698 23.2166C83.5698 27.2603 86.3191 29.4753 89.2739 29.4753C90.867 29.4753 91.869 28.8314 92.6398 27.9557H92.7426V29.2693C92.7426 30.8662 91.9975 31.7934 90.2246 31.7934C88.8371 31.7934 88.1434 31.201 87.9121 30.5056H83.8525C84.2636 33.2615 86.6531 34.7553 90.276 34.7553ZM90.2503 26.3589C88.683 26.3589 87.6552 25.071 87.6552 23.0878C87.6552 21.0789 88.683 19.791 90.2503 19.791C91.9975 19.791 92.9225 21.2849 92.9225 23.0621C92.9225 24.9165 92.0746 26.3589 90.2503 26.3589Z" fill="var(--fill-0, white)"/>
<path id="Vector_4" d="M105.095 27.6215C103.271 27.6215 102.32 26.0246 102.32 23.6293C102.32 21.234 103.271 19.6114 105.095 19.6114C106.92 19.6114 107.896 21.234 107.896 23.6293C107.896 26.0246 106.92 27.6215 105.095 27.6215ZM105.121 30.6092C109.361 30.6092 112.135 27.5958 112.135 23.6293C112.135 19.6629 109.361 16.6494 105.121 16.6494C100.907 16.6494 98.0808 19.6629 98.0808 23.6293C98.0808 27.5958 100.907 30.6092 105.121 30.6092Z" fill="var(--fill-0, white)"/>
<path id="Vector_5" fill-rule="evenodd" clip-rule="evenodd" d="M22.1442 43.0752C33.9696 43.0752 43.556 33.4657 43.556 21.6118C43.556 9.75794 33.9696 0.148438 22.1442 0.148438C10.3188 0.148438 0.732422 9.75794 0.732422 21.6118C0.732422 33.4657 10.3188 43.0752 22.1442 43.0752ZM28.8239 10.147C29.1491 8.98927 28.0283 8.30467 27.0047 9.03568L12.7156 19.2397C11.6055 20.0324 11.7802 21.6118 12.9779 21.6118H16.7406V21.5826H24.0739L18.0987 23.696L15.4645 33.0767C15.1393 34.2345 16.26 34.919 17.2837 34.188L31.5728 23.9841C32.6829 23.1913 32.5081 21.6118 31.3105 21.6118H25.6045L28.8239 10.147Z" fill="var(--fill-0, #EF6445)"/>
</g>
<defs>
<clipPath id="clip0_0_16">
<rect width="112" height="44" fill="white"/>
</clipPath>
</defs>
</svg>
