<svg preserveAspectRatio="none" width="100%" height="100%" overflow="visible" style="display: block;" viewBox="0 0 87.291 30.4193" fill="none" xmlns="http://www.w3.org/2000/svg">
<g id="Group">
<path id="Vector" d="M3.62399 9.70966L2.40676 12.8616H6.90789e-07L4.77014 0.699217H7.74135L12.7289 12.8616H10.1894L8.91102 9.70966H3.62347H3.62399ZM8.26609 7.77232C7.08126 4.80992 6.47657 3.26214 6.19173 2.33159H6.17448C5.89905 3.28094 5.19923 5.23551 4.23757 7.77232H8.26661H8.26609Z" fill="var(--fill-0, #E6FCFF)"/>
<path id="Vector_2" d="M13.6205 11.1948L18.8767 5.75039H13.9033V3.97911H21.6389V5.69504L16.4966 11.082H22.0058L21.7142 12.8606H13.6205V11.1943V11.1948Z" fill="var(--fill-0, #E6FCFF)"/>
<path id="Vector_3" d="M24.7152 8.93629C24.7716 10.2914 25.6267 11.3509 27.09 11.3509C28.2817 11.3509 28.808 10.8877 29.1503 10.2439H31.4071C30.955 11.5943 29.7649 13.0919 27.0352 13.0919C23.7744 13.0919 22.4579 10.7666 22.4579 8.46997C22.4579 5.84543 24.0707 3.7483 27.0461 3.7483C30.3205 3.7483 31.5273 6.10757 31.5273 8.30339C31.5273 8.52898 31.5273 8.694 31.51 8.93629H24.7146H24.7152ZM29.2329 7.49138C29.1843 6.53212 28.704 5.38851 27.0378 5.38851C25.5127 5.38851 24.8704 6.32428 24.7554 7.49138H29.2329Z" fill="var(--fill-0, #E6FCFF)"/>
<path id="Vector_4" d="M33.0048 6.39217C33.0048 5.51123 33.0027 4.72324 32.9875 3.97911H35.191C35.227 4.24804 35.26 5.1577 35.26 5.77859C35.7533 4.58225 36.8629 3.74099 38.5615 3.75561V5.86684C36.6115 5.847 35.26 6.72428 35.26 9.21984V12.8611H33.0048V6.39217Z" fill="var(--fill-0, #E6FCFF)"/>
<path id="Vector_5" d="M39.738 6.85199e-08H41.9932V5.09086C42.417 4.47833 43.2543 3.74883 44.9429 3.74883C47.3497 3.74883 49.0227 5.65535 49.0227 8.25326C49.0227 11.1358 47.2839 13.0924 44.7616 13.0924C43.1163 13.0924 42.3695 12.4721 41.9331 11.7645C41.9289 12.0929 41.908 12.6167 41.8792 12.8616H39.7207C39.738 11.7232 39.738 10.8705 39.738 9.88251V6.85199e-08ZM46.7084 8.33055C46.7084 6.86893 45.9856 5.55405 44.343 5.55405C42.7003 5.55405 41.9142 6.68669 41.9142 8.42559C41.9142 10.1645 42.6951 11.2747 44.3158 11.2747C45.9365 11.2747 46.7079 9.99008 46.7079 8.33055H46.7084Z" fill="var(--fill-0, #E6FCFF)"/>
<path id="Vector_6" d="M58.553 10.5666C58.553 11.5347 58.611 12.6527 58.644 12.8611H56.5027C56.4332 12.6282 56.4003 12.0794 56.3888 11.7812C55.9675 12.5138 55.0733 13.0919 53.3559 13.0919C51.0056 13.0919 50.0669 11.6313 50.0669 10.2533C50.0669 8.04595 51.9672 7.31123 54.5663 7.31123H56.3475V6.8611C56.3475 6.08198 56.0313 5.35144 54.5486 5.35144C53.1975 5.35144 52.9038 5.92324 52.7658 6.56606H50.5409C50.6413 5.33838 51.4561 3.74413 54.5548 3.74778C57.7231 3.75144 58.5536 5.20157 58.5536 6.87833V10.5661L58.553 10.5666ZM56.3496 8.77285C56.1144 8.76554 55.5238 8.76554 54.6604 8.76554C53.0078 8.76554 52.2866 9.19269 52.2866 10.1321C52.2866 10.8543 52.8139 11.4392 53.9413 11.4392C55.7924 11.4392 56.3496 10.3755 56.3496 9.01619V8.77285Z" fill="var(--fill-0, #E6FCFF)"/>
<path id="Vector_7" d="M60.4779 6.85199e-08H62.7331V2.12324H60.4779V6.85199e-08ZM60.4779 3.97963H62.7331V12.8611H60.4779V3.97963Z" fill="var(--fill-0, #E6FCFF)"/>
<path id="Vector_8" d="M66.9566 3.97964V12.7734C66.9566 15.2261 66.4376 16.7634 63.6294 16.7634C63.4591 16.7634 63.2411 16.7499 63.1497 16.7441V14.9577C63.2155 14.9598 63.2876 14.9598 63.3493 14.9598C64.3679 14.9598 64.7019 14.5003 64.7019 13.2992V3.97964H66.9571H66.9566ZM64.6977 2.12324V6.85199e-08H66.9524V2.12324H64.6977Z" fill="var(--fill-0, #E6FCFF)"/>
<path id="Vector_9" d="M76.9024 10.5666C76.9024 11.5347 76.9604 12.6527 76.9934 12.8611H74.8521C74.7826 12.6282 74.7497 12.0794 74.7382 11.7812C74.3169 12.5138 73.4227 13.0919 71.7053 13.0919C69.355 13.0919 68.4163 11.6313 68.4163 10.2533C68.4163 8.04595 70.3166 7.31123 72.9157 7.31123H74.6969V6.8611C74.6969 6.08198 74.3807 5.35144 72.898 5.35144C71.5469 5.35144 71.2532 5.92324 71.1152 6.56606H68.8903C68.9907 5.33838 69.8055 3.74413 72.9042 3.74778C76.0725 3.75144 76.903 5.20157 76.903 6.87833V10.5661L76.9024 10.5666ZM74.699 8.77285C74.4638 8.76554 73.8732 8.76554 73.0098 8.76554C71.3572 8.76554 70.636 9.19269 70.636 10.1321C70.636 10.8543 71.1633 11.4392 72.2906 11.4392C74.1418 11.4392 74.699 10.3755 74.699 9.01619V8.77285Z" fill="var(--fill-0, #E6FCFF)"/>
<path id="Vector_10" d="M78.8095 6.21932C78.8095 5.46475 78.8095 4.63447 78.7923 3.97964H80.9884C81.0271 4.24282 81.0553 4.90496 81.0647 5.30183C81.4384 4.61253 82.2511 3.74883 83.9947 3.74883C86.0042 3.74883 87.291 5.00836 87.291 7.33629V12.8616H85.0211V7.6752C85.0211 6.49608 84.5753 5.5624 83.2274 5.5624C81.7698 5.5624 81.0721 6.59582 81.0721 8.33943V12.8616H78.8095V6.21932Z" fill="var(--fill-0, #E6FCFF)"/>
<path id="Vector_11" d="M4.24228 19.9551H0.018815V18.0256H10.8249V19.9551H6.61037V30.188H4.24228V19.9551Z" fill="var(--fill-0, #E6FCFF)"/>
<path id="Vector_12" d="M10.2542 23.7191C10.2542 22.8381 10.2521 22.0501 10.237 21.306H12.4404C12.4765 21.5749 12.5094 22.4846 12.5094 23.1055C13.0028 21.9091 14.1123 21.0679 15.8109 21.0825V23.1937C13.861 23.1739 12.5094 24.0512 12.5094 26.5467V30.188H10.2542V23.7191Z" fill="var(--fill-0, #E6FCFF)"/>
<path id="Vector_13" d="M24.6572 27.8935C24.6572 28.8616 24.7152 29.9796 24.7481 30.188H22.6068C22.5373 29.9551 22.5044 29.4063 22.4929 29.1081C22.0716 29.8407 21.1774 30.4188 19.46 30.4188C17.1097 30.4188 16.171 28.9582 16.171 27.5802C16.171 25.3728 18.0714 24.6381 20.6704 24.6381H22.4516V24.188C22.4516 23.4089 22.1354 22.6783 20.6527 22.6783C19.3017 22.6783 19.0079 23.2501 18.87 23.893H16.6451C16.7454 22.6653 17.5602 21.071 20.659 21.0747C23.8272 21.0783 24.6577 22.5285 24.6577 24.2052V27.893L24.6572 27.8935ZM22.4532 26.0997C22.218 26.0924 21.6274 26.0924 20.764 26.0924C19.1114 26.0924 18.3902 26.5196 18.3902 27.459C18.3902 28.1812 18.9175 28.7661 20.0448 28.7661C21.896 28.7661 22.4532 27.7024 22.4532 26.3431V26.0997Z" fill="var(--fill-0, #E6FCFF)"/>
<path id="Vector_14" d="M27.6535 21.3065C28.6878 24.3107 29.7691 27.1326 30.0534 28.189H30.0785C30.3524 27.1243 31.0574 25.1483 32.5088 21.3065H34.7969L31.2236 30.188H28.752L25.2263 21.3065H27.6545H27.6535Z" fill="var(--fill-0, #E6FCFF)"/>
<path id="Vector_15" d="M37.1389 26.2632C37.1953 27.6183 38.0504 28.6778 39.5137 28.6778C40.7054 28.6778 41.2317 28.2146 41.574 27.5708H43.8308C43.3787 28.9212 42.1886 30.4188 39.4589 30.4188C36.1981 30.4188 34.8816 28.0935 34.8816 25.7969C34.8816 23.1723 36.4945 21.0752 39.4698 21.0752C42.7442 21.0752 43.951 23.4345 43.951 25.6303C43.951 25.8559 43.951 26.0209 43.9337 26.2632H37.1383H37.1389ZM41.6566 24.8178C41.608 23.8585 41.1277 22.7149 39.4615 22.7149C37.9364 22.7149 37.2941 23.6507 37.1791 24.8178H41.6566Z" fill="var(--fill-0, #E6FCFF)"/>
<path id="Vector_16" d="M45.2926 30.188V17.3269H47.5478V30.188H45.2926Z" fill="var(--fill-0, #E6FCFF)"/>
<path id="Vector_17" d="M49.2934 30.188V27.0397H51.8125V30.188H49.2934Z" fill="var(--fill-0, #E6FCFF)"/>
<path id="Vector_18" d="M61.9235 27.3128C61.5519 28.9128 60.2548 30.4188 57.5882 30.4188C54.501 30.4188 53.0036 28.3755 53.0036 25.7666C53.0036 23.1577 54.6562 21.0747 57.6348 21.0747C60.7779 21.0747 61.7736 23.1697 61.8932 24.2329H59.6511C59.442 23.5514 58.9236 22.824 57.6243 22.824C56.1029 22.824 55.3027 24.0068 55.3027 25.7285C55.3027 27.4501 56.0788 28.6663 57.6107 28.6663C58.7203 28.6663 59.3203 28.1619 59.6772 27.3128H61.923H61.9235Z" fill="var(--fill-0, #E6FCFF)"/>
<path id="Vector_19" d="M72.2258 25.7379C72.2258 28.3661 70.5283 30.4193 67.4322 30.4193C64.3361 30.4193 62.7666 28.2815 62.7666 25.7551C62.7666 23.2287 64.4735 21.0752 67.5372 21.0752C70.6009 21.0752 72.2253 23.3008 72.2253 25.7373L72.2258 25.7379ZM65.0662 25.7473C65.0662 27.354 65.9406 28.6585 67.5053 28.6585C69.0701 28.6585 69.9121 27.4005 69.9121 25.7739C69.9121 24.1473 69.0978 22.836 67.4745 22.836C65.8512 22.836 65.0667 24.0768 65.0667 25.7478L65.0662 25.7473Z" fill="var(--fill-0, #E6FCFF)"/>
<path id="Vector_20" d="M73.5821 23.5979C73.5821 22.8303 73.5821 22.0658 73.5648 21.3065H75.727C75.7673 21.6209 75.7939 22.0961 75.7991 22.4783C76.247 21.7786 77.0608 21.0752 78.4876 21.0752C79.9144 21.0752 80.725 21.7546 81.0762 22.5963C81.5555 21.87 82.3729 21.0752 84.0151 21.0752C85.6572 21.0752 87.13 22.0924 87.13 24.6345V30.188H84.913V24.7603C84.913 23.8742 84.6067 22.8548 83.3267 22.8548C82.1393 22.8548 81.4808 23.6496 81.4808 25.2319V30.188H79.2543V24.7608C79.2543 23.7875 78.9407 22.8585 77.6739 22.8585C76.407 22.8585 75.8143 23.8188 75.8143 25.317V30.1875H73.5821V23.5974V23.5979Z" fill="var(--fill-0, #E6FCFF)"/>
</g>
</svg>
