<svg preserveAspectRatio="none" width="100%" height="100%" overflow="visible" style="display: block;" viewBox="0 0 38 38" fill="none" xmlns="http://www.w3.org/2000/svg">
<g id="airplane">
<path id="Vector" d="M31.6231 8.11062C30.8859 7.91409 30.1171 7.86537 29.361 7.96727C28.6049 8.06917 27.8764 8.31968 27.2175 8.70437L23.9637 10.5925L17.6937 5.01125C17.1342 4.51142 16.4312 4.20099 15.6849 4.12423C14.9386 4.04746 14.187 4.20828 13.5375 4.58375L13.0625 4.85687C12.2465 5.32887 11.6508 6.10507 11.4059 7.01544C11.1611 7.9258 11.2871 8.89609 11.7562 9.71375L15.1881 15.6512L10.925 18.145L7.58812 15.5087C7.1305 15.146 6.57431 14.9294 5.99189 14.887C5.40948 14.8446 4.82779 14.9785 4.3225 15.2712L3.83563 15.5562C3.16646 15.9482 2.6789 16.5883 2.47881 17.3375C2.27871 18.0868 2.38222 18.8847 2.76688 19.5581L5.9375 24.9375C6.71242 26.297 7.99272 27.2956 9.5 27.7162C10.0042 27.8475 10.5228 27.9154 11.0437 27.9181C12.0871 27.9145 13.1111 27.636 14.0125 27.1106L33.8912 15.5919C34.2893 15.3669 34.6376 15.0636 34.9151 14.7003C35.1927 14.337 35.3938 13.9213 35.5062 13.4781C35.6324 13.0332 35.668 12.5674 35.6109 12.1085C35.5538 11.6495 35.4052 11.2067 35.1737 10.8062C34.7897 10.1444 34.2781 9.56528 33.6686 9.10256C33.0591 8.63984 32.3639 8.30268 31.6231 8.11062Z" fill="var(--fill-0, #4845EF)"/>
<path id="Vector_2" d="M34.4375 35.5181H3.5625C3.24756 35.5181 2.94551 35.393 2.72281 35.1703C2.50011 34.9476 2.375 34.6456 2.375 34.3306C2.375 34.0157 2.50011 33.7136 2.72281 33.4909C2.94551 33.2682 3.24756 33.1431 3.5625 33.1431H34.4375C34.7524 33.1431 35.0545 33.2682 35.2772 33.4909C35.4999 33.7136 35.625 34.0157 35.625 34.3306C35.625 34.6456 35.4999 34.9476 35.2772 35.1703C35.0545 35.393 34.7524 35.5181 34.4375 35.5181Z" fill="var(--fill-0, #EF6445)"/>
</g>
</svg>
