<svg preserveAspectRatio="none" width="100%" height="100%" overflow="visible" style="display: block;" viewBox="0 0 38 38" fill="none" xmlns="http://www.w3.org/2000/svg">
<g id="direction-board">
<path id="Vector" d="M19 35.625C20.2598 35.625 21.468 35.1246 22.3588 34.2338C23.2496 33.343 23.75 32.1348 23.75 30.875H14.25C14.25 32.1348 14.7504 33.343 15.6412 34.2338C16.532 35.1246 17.7402 35.625 19 35.625Z" fill="var(--fill-0, #EF6445)"/>
<path id="Vector_2" d="M32.205 20.045L29.83 17.67C29.1625 17.0017 28.257 16.6258 27.3125 16.625H8.3125C7.36767 16.625 6.46153 17.0003 5.79343 17.6684C5.12533 18.3365 4.75 19.2427 4.75 20.1875V24.9375C4.75 25.8823 5.12533 26.7885 5.79343 27.4566C6.46153 28.1247 7.36767 28.5 8.3125 28.5H27.3125C28.257 28.4992 29.1625 28.1233 29.83 27.455L32.205 25.08C32.8721 24.412 33.2469 23.5066 33.2469 22.5625C33.2469 21.6184 32.8721 20.713 32.205 20.045ZM29.6875 2.375H10.6875C9.74298 2.37583 8.83746 2.75171 8.17 3.42L5.795 5.795C5.12786 6.46297 4.75313 7.36843 4.75313 8.3125C4.75313 9.25657 5.12786 10.162 5.795 10.83L8.17 13.205C8.83746 13.8733 9.74298 14.2492 10.6875 14.25H29.6875C30.6323 14.25 31.5385 13.8747 32.2066 13.2066C32.8747 12.5385 33.25 11.6323 33.25 10.6875V5.9375C33.25 4.99267 32.8747 4.08653 32.2066 3.41843C31.5385 2.75033 30.6323 2.375 29.6875 2.375Z" fill="var(--fill-0, #4845EF)"/>
</g>
</svg>
