<svg preserveAspectRatio="none" width="100%" height="100%" overflow="visible" style="display: block;" viewBox="0 0 38 38" fill="none" xmlns="http://www.w3.org/2000/svg">
<g id="camera">
<path id="Vector" d="M19 26.125C22.2792 26.125 24.9375 23.4667 24.9375 20.1875C24.9375 16.9083 22.2792 14.25 19 14.25C15.7208 14.25 13.0625 16.9083 13.0625 20.1875C13.0625 23.4667 15.7208 26.125 19 26.125Z" fill="var(--fill-0, #EF6445)"/>
<path id="Vector_2" d="M29.6875 9.5H28.785C28.5637 9.50154 28.3464 9.4412 28.1575 9.3258C27.9687 9.2104 27.8158 9.04452 27.7163 8.84687L27.3125 8.0275C26.8189 7.0425 26.061 6.21427 25.1236 5.63544C24.1861 5.05662 23.1061 4.75004 22.0044 4.75H15.9956C14.8939 4.75004 13.8139 5.05662 12.8764 5.63544C11.939 6.21427 11.1811 7.0425 10.6875 8.0275L10.2837 8.84687C10.1842 9.04452 10.0313 9.2104 9.84249 9.3258C9.65364 9.4412 9.43631 9.50154 9.215 9.5H8.3125C6.73778 9.5 5.22755 10.1256 4.11405 11.2391C3.00056 12.3526 2.375 13.8628 2.375 15.4375V27.3125C2.375 28.8872 3.00056 30.3974 4.11405 31.5109C5.22755 32.6244 6.73778 33.25 8.3125 33.25H29.6875C31.2622 33.25 32.7724 32.6244 33.8859 31.5109C34.9994 30.3974 35.625 28.8872 35.625 27.3125V15.4375C35.625 13.8628 34.9994 12.3526 33.8859 11.2391C32.7724 10.1256 31.2622 9.5 29.6875 9.5ZM19 28.5C17.3559 28.5 15.7488 28.0125 14.3818 27.0991C13.0148 26.1857 11.9494 24.8875 11.3203 23.3686C10.6911 21.8496 10.5265 20.1783 10.8472 18.5658C11.168 16.9533 11.9597 15.4722 13.1222 14.3097C14.2847 13.1472 15.7658 12.3555 17.3783 12.0347C18.9908 11.714 20.6621 11.8786 22.1811 12.5078C23.7 13.1369 24.9982 14.2023 25.9116 15.5693C26.825 16.9363 27.3125 18.5434 27.3125 20.1875C27.3125 22.3921 26.4367 24.5064 24.8778 26.0653C23.3189 27.6242 21.2046 28.5 19 28.5ZM29.6875 16.625C29.4526 16.625 29.223 16.5554 29.0278 16.4249C28.8325 16.2944 28.6803 16.1089 28.5904 15.8919C28.5005 15.6749 28.477 15.4362 28.5228 15.2058C28.5686 14.9755 28.6817 14.7639 28.8478 14.5978C29.0139 14.4317 29.2255 14.3186 29.4558 14.2728C29.6862 14.227 29.9249 14.2505 30.1419 14.3404C30.3589 14.4303 30.5444 14.5825 30.6749 14.7778C30.8054 14.973 30.875 15.2026 30.875 15.4375C30.875 15.7524 30.7499 16.0545 30.5272 16.2772C30.3045 16.4999 30.0024 16.625 29.6875 16.625Z" fill="var(--fill-0, #4845EF)"/>
</g>
</svg>
