<svg preserveAspectRatio="none" width="100%" height="100%" overflow="visible" style="display: block;" viewBox="0 0 36 36" fill="none" xmlns="http://www.w3.org/2000/svg">
<g id="hotel">
<path id="Vector" d="M21.375 18V20.25H23.625V18H21.375Z" fill="var(--fill-0, #4845EF)"/>
<path id="Vector_2" d="M12.375 18V20.25H14.625V18H12.375Z" fill="var(--fill-0, #4845EF)"/>
<path id="Vector_3" d="M21.375 9V11.25H23.625V9H21.375Z" fill="var(--fill-0, #4845EF)"/>
<path id="Vector_4" d="M12.375 9V11.25H14.625V9H12.375Z" fill="var(--fill-0, #4845EF)"/>
<path id="Vector_5" d="M20.25 28.125V31.5H15.75V28.125C15.75 27.8266 15.8685 27.5405 16.0795 27.3295C16.2905 27.1185 16.5766 27 16.875 27H19.125C19.4234 27 19.7095 27.1185 19.9205 27.3295C20.1315 27.5405 20.25 27.8266 20.25 28.125Z" fill="var(--fill-0, #4845EF)"/>
<path id="Vector_6" d="M24.75 2.25H11.25C9.75816 2.25 8.32742 2.84263 7.27252 3.89752C6.21763 4.95242 5.625 6.38316 5.625 7.875V31.5H13.5V28.125C13.5 27.2299 13.8556 26.3714 14.4885 25.7385C15.1214 25.1056 15.9799 24.75 16.875 24.75H19.125C20.0201 24.75 20.8786 25.1056 21.5115 25.7385C22.1444 26.3714 22.5 27.2299 22.5 28.125V31.5H30.375V7.875C30.375 6.38316 29.7824 4.95242 28.7275 3.89752C27.6726 2.84263 26.2418 2.25 24.75 2.25ZM16.875 20.25C16.875 20.8467 16.6379 21.419 16.216 21.841C15.794 22.2629 15.2217 22.5 14.625 22.5H12.375C11.7783 22.5 11.206 22.2629 10.784 21.841C10.3621 21.419 10.125 20.8467 10.125 20.25V18C10.125 17.4033 10.3621 16.831 10.784 16.409C11.206 15.9871 11.7783 15.75 12.375 15.75H14.625C15.2217 15.75 15.794 15.9871 16.216 16.409C16.6379 16.831 16.875 17.4033 16.875 18V20.25ZM16.875 11.25C16.875 11.8467 16.6379 12.419 16.216 12.841C15.794 13.2629 15.2217 13.5 14.625 13.5H12.375C11.7783 13.5 11.206 13.2629 10.784 12.841C10.3621 12.419 10.125 11.8467 10.125 11.25V9C10.125 8.40326 10.3621 7.83097 10.784 7.40901C11.206 6.98705 11.7783 6.75 12.375 6.75H14.625C15.2217 6.75 15.794 6.98705 16.216 7.40901C16.6379 7.83097 16.875 8.40326 16.875 9V11.25ZM25.875 20.25C25.875 20.8467 25.6379 21.419 25.216 21.841C24.794 22.2629 24.2217 22.5 23.625 22.5H21.375C20.7783 22.5 20.206 22.2629 19.784 21.841C19.3621 21.419 19.125 20.8467 19.125 20.25V18C19.125 17.4033 19.3621 16.831 19.784 16.409C20.206 15.9871 20.7783 15.75 21.375 15.75H23.625C24.2217 15.75 24.794 15.9871 25.216 16.409C25.6379 16.831 25.875 17.4033 25.875 18V20.25ZM25.875 11.25C25.875 11.8467 25.6379 12.419 25.216 12.841C24.794 13.2629 24.2217 13.5 23.625 13.5H21.375C20.7783 13.5 20.206 13.2629 19.784 12.841C19.3621 12.419 19.125 11.8467 19.125 11.25V9C19.125 8.40326 19.3621 7.83097 19.784 7.40901C20.206 6.98705 20.7783 6.75 21.375 6.75H23.625C24.2217 6.75 24.794 6.98705 25.216 7.40901C25.6379 7.83097 25.875 8.40326 25.875 9V11.25Z" fill="var(--fill-0, #4845EF)"/>
<path id="Vector_7" d="M33.75 32.625C33.75 32.9234 33.6315 33.2095 33.4205 33.4205C33.2095 33.6315 32.9234 33.75 32.625 33.75H3.375C3.07663 33.75 2.79048 33.6315 2.5795 33.4205C2.36853 33.2095 2.25 32.9234 2.25 32.625C2.25 32.3266 2.36853 32.0405 2.5795 31.8295C2.79048 31.6185 3.07663 31.5 3.375 31.5H32.625C32.9234 31.5 33.2095 31.6185 33.4205 31.8295C33.6315 32.0405 33.75 32.3266 33.75 32.625Z" fill="var(--fill-0, #EF6445)"/>
</g>
</svg>
