<svg preserveAspectRatio="none" width="100%" height="100%" overflow="visible" style="display: block;" viewBox="0 0 38 38" fill="none" xmlns="http://www.w3.org/2000/svg">
<g id="train">
<path id="Vector" d="M34.3544 35.625H3.47938C3.16443 35.625 2.86239 35.4999 2.63969 35.2772C2.41699 35.0545 2.29187 34.7524 2.29187 34.4375C2.29187 34.1226 2.41699 33.8205 2.63969 33.5978C2.86239 33.3751 3.16443 33.25 3.47938 33.25H34.3544C34.6693 33.25 34.9714 33.3751 35.1941 33.5978C35.4168 33.8205 35.5419 34.1226 35.5419 34.4375C35.5419 34.7524 35.4168 35.0545 35.1941 35.2772C34.9714 35.4999 34.6693 35.625 34.3544 35.625ZM10.6044 4.75H3.47938C3.16443 4.75 2.86239 4.62489 2.63969 4.40219C2.41699 4.17949 2.29187 3.87744 2.29187 3.5625C2.29187 3.24756 2.41699 2.94551 2.63969 2.72281C2.86239 2.50011 3.16443 2.375 3.47938 2.375H10.6044C10.9193 2.375 11.2214 2.50011 11.4441 2.72281C11.6668 2.94551 11.7919 3.24756 11.7919 3.5625C11.7919 3.87744 11.6668 4.17949 11.4441 4.40219C11.2214 4.62489 10.9193 4.75 10.6044 4.75Z" fill="var(--fill-0, #EF6445)"/>
<path id="Vector_2" d="M34.4375 18.3588L30.2694 11.2338C29.5402 9.98971 28.4998 8.95677 27.2507 8.2364C26.0015 7.51604 24.5864 7.13303 23.1444 7.125H5.85437C4.90954 7.125 4.00341 7.50033 3.33531 8.16843C2.66721 8.83653 2.29187 9.74267 2.29187 10.6875V27.3125C2.29187 28.2573 2.66721 29.1635 3.33531 29.8316C4.00341 30.4997 4.90954 30.875 5.85437 30.875H27.3125C29.2602 30.8757 31.1462 30.1925 32.6416 28.9445C34.1369 27.6966 35.1466 25.9632 35.4944 24.0469C35.5057 23.9761 35.5057 23.9039 35.4944 23.8331C35.5009 23.8058 35.5009 23.7773 35.4944 23.75C35.7633 21.8851 35.3906 19.9841 34.4375 18.3588ZM9.5 17.8125H4.66687V10.6875C4.66687 10.3726 4.79199 10.0705 5.01469 9.84781C5.23739 9.62511 5.53943 9.5 5.85437 9.5H9.5V17.8125ZM19 17.8125H11.875V9.5H19V17.8125ZM21.375 17.8125V9.5H23.1325C24.1672 9.50055 25.1838 9.7715 26.0816 10.286C26.9793 10.8005 27.7271 11.5406 28.2506 12.4331L31.4094 17.8125H21.375ZM31.9675 24.9375C31.6526 24.9375 31.3505 24.8124 31.1278 24.5897C30.9051 24.367 30.78 24.0649 30.78 23.75C30.78 23.4351 30.9051 23.133 31.1278 22.9103C31.3505 22.6876 31.6526 22.5625 31.9675 22.5625H33.25C33.2513 23.3815 33.0772 24.1914 32.7394 24.9375H31.9675Z" fill="var(--fill-0, #4845EF)"/>
</g>
</svg>
