<svg preserveAspectRatio="none" width="100%" height="100%" overflow="visible" style="display: block;" viewBox="0 0 26.0026 30.0015" fill="none" xmlns="http://www.w3.org/2000/svg">
<path id="Vector" d="M22.7644 6.41625C22.562 6.31159 22.3648 6.19687 22.1738 6.0725C21.6184 5.70528 21.1091 5.27259 20.6569 4.78375C19.5257 3.48938 19.1032 2.17625 18.9476 1.25688H18.9538C18.8238 0.49375 18.8776 0 18.8857 0H13.7332V19.9237C13.7332 20.1912 13.7332 20.4556 13.7219 20.7169C13.7219 20.7494 13.7188 20.7794 13.7169 20.8144C13.7169 20.8287 13.7169 20.8437 13.7138 20.8587V20.87C13.6595 21.5849 13.4304 22.2754 13.0465 22.8809C12.6627 23.4864 12.1359 23.9884 11.5126 24.3425C10.8629 24.7121 10.1281 24.906 9.3807 24.905C6.98007 24.905 5.03444 22.9475 5.03444 20.53C5.03444 18.1125 6.98007 16.155 9.3807 16.155C9.83512 16.1546 10.2868 16.2261 10.7188 16.3669L10.7251 11.1206C9.41342 10.9512 8.0809 11.0554 6.81155 11.4268C5.54221 11.7981 4.3636 12.4285 3.35007 13.2781C2.46199 14.0498 1.71537 14.9704 1.14382 15.9988C0.92632 16.3738 0.105695 17.8806 0.00631992 20.3263C-0.0561801 21.7144 0.360695 23.1525 0.559445 23.7469V23.7594C0.684445 24.1094 1.16882 25.3038 1.95819 26.3106C2.59472 27.1183 3.34675 27.8278 4.19007 28.4163V28.4037L4.20257 28.4163C6.69694 30.1113 9.46257 30 9.46257 30C9.94132 29.9806 11.5451 30 13.3663 29.1369C15.3863 28.18 16.5363 26.7544 16.5363 26.7544C17.271 25.9026 17.8552 24.9318 18.2638 23.8838C18.7301 22.6581 18.8857 21.1881 18.8857 20.6006V10.0306C18.9482 10.0681 19.7807 10.6187 19.7807 10.6187C19.7807 10.6187 20.9801 11.3875 22.8513 11.8881C24.1938 12.2444 26.0026 12.3194 26.0026 12.3194V7.20438C25.3688 7.27313 24.0819 7.07313 22.7644 6.41625V6.41625Z" fill="var(--fill-0, white)"/>
</svg>
