<svg preserveAspectRatio="none" width="100%" height="100%" overflow="visible" style="display: block;" viewBox="0 0 26 26" fill="none" xmlns="http://www.w3.org/2000/svg">
<g id="Instagram">
<g id="Vector">
<path d="M13 10C11.3431 10 10 11.3431 10 13C10 14.6569 11.3431 16 13 16C14.6569 16 16 14.6569 16 13C16 11.3431 14.6569 10 13 10Z" fill="var(--fill-0, white)"/>
<path fill-rule="evenodd" clip-rule="evenodd" d="M12.9397 1.76449e-07C10.491 -1.07113e-05 8.57148 -1.93715e-05 7.04864 0.164971C5.49459 0.333342 4.23541 0.683099 3.16031 1.4642C2.50945 1.93708 1.93708 2.50945 1.4642 3.16031C0.683099 4.23541 0.333342 5.49459 0.164971 7.04864C-1.93715e-05 8.57148 -1.07113e-05 10.491 1.76449e-07 12.9397V13.0603C-1.07113e-05 15.509 -1.93715e-05 17.4285 0.164971 18.9514C0.333342 20.5054 0.683099 21.7646 1.4642 22.8397C1.93708 23.4905 2.50945 24.0629 3.16031 24.5358C4.23541 25.3169 5.49459 25.6667 7.04864 25.835C8.57146 26 10.4909 26 12.9395 26H13.0604C15.509 26 17.4285 26 18.9514 25.835C20.5054 25.6667 21.7646 25.3169 22.8397 24.5358C23.4905 24.0629 24.0629 23.4905 24.5358 22.8397C25.3169 21.7646 25.6667 20.5054 25.835 18.9514C26 17.4285 26 15.5091 26 13.0605V12.9396C26 10.491 26 8.57146 25.835 7.04864C25.6667 5.49459 25.3169 4.23541 24.5358 3.16031C24.0629 2.50945 23.4905 1.93708 22.8397 1.4642C21.7646 0.683099 20.5054 0.333342 18.9514 0.164971C17.4285 -1.93715e-05 15.509 -1.07113e-05 13.0603 1.76449e-07H12.9397ZM8 13C8 10.2386 10.2386 8 13 8C15.7614 8 18 10.2386 18 13C18 15.7614 15.7614 18 13 18C10.2386 18 8 15.7614 8 13ZM19.6667 7.66667C18.9303 7.66667 18.3333 7.06971 18.3333 6.33333C18.3333 5.59695 18.9303 5 19.6667 5C20.403 5 21 5.59695 21 6.33333C21 7.06971 20.403 7.66667 19.6667 7.66667Z" fill="var(--fill-0, white)"/>
</g>
</g>
</svg>
