<svg preserveAspectRatio="none" width="100%" height="100%" overflow="visible" style="display: block;" viewBox="0 0 80 80" fill="none" xmlns="http://www.w3.org/2000/svg">
<g id="airplane">
<path id="Vector" d="M3.18512 41.5206L17.0712 49.9726C17.6878 50.348 18.4538 50.3774 19.0968 50.0493C26.276 46.3866 68.4738 24.8435 70.1864 23.6195C72.0587 22.2813 78.7645 19.5722 77.449 16.5362C74.6442 10.5659 64.5987 16.479 64.5987 16.479L47.8294 24.733L22.9107 17.9714C22.4658 17.8506 21.9915 17.8968 21.5782 18.1014L18.6202 19.5658C17.3272 20.2058 17.2002 22.0002 18.3899 22.816L33.3307 33.0616L17.895 41.1126L6.10784 37.6627C5.68768 37.5397 5.23552 37.5925 4.8552 37.8088L3.22672 38.7342C2.1552 39.3435 2.13216 40.8798 3.18512 41.5206ZM44.7218 40.0115L58.5344 48.4574C59.8845 49.085 61.475 48.3509 61.8736 46.9165L62.0386 46.3234C62.2098 45.7066 62.1288 45.0467 61.8133 44.4898L57.2515 33.6874L44.7218 40.0115ZM76.8217 62.7888H3.05888C2.11152 62.7888 1.34336 63.567 1.34336 64.5144C1.34336 65.4618 2.11152 66.24 3.05888 66.24H76.8217C77.7691 66.24 78.5373 65.4618 78.5373 64.5144C78.5371 63.567 77.7691 62.7888 76.8217 62.7888Z" fill="var(--fill-0, white)"/>
</g>
</svg>
