<svg preserveAspectRatio="none" width="100%" height="100%" overflow="visible" style="display: block;" viewBox="0 0 44.0377 44" fill="none" xmlns="http://www.w3.org/2000/svg">
<g id="Group">
<path id="Vector" d="M44.0377 22C44.0377 25.1906 43.3578 28.223 42.1343 30.9598C41.5735 32.2157 40.8982 33.4094 40.1216 34.5274C36.1464 40.2517 29.5209 44 22.0189 44C9.85805 44 0 34.1504 0 22C0 9.84961 9.85805 0 22.0189 0C34.1797 0 44.0377 9.84961 44.0377 22Z" fill="var(--fill-0, #EF6445)"/>
<path id="Vector_2" d="M42.0841 30.8486C40.4284 31.5958 38.7972 32.0418 37.235 32.1744C36.9758 32.1963 36.7145 32.2099 36.4579 32.2151C34.3386 32.2559 32.1983 31.5911 30.3445 30.3279C30.8018 29.8705 31.2346 29.3869 31.6375 28.8825C32.9875 27.1922 33.9685 25.3003 34.4744 23.4104C34.5053 23.2966 34.5345 23.1812 34.5617 23.0663C34.637 22.7483 34.6992 22.4266 34.7467 22.1102C35.0953 19.7896 34.3558 17.4235 32.8161 15.9363C31.4802 14.6454 29.6876 14.13 27.7674 14.4841C25.5289 14.8966 23.5789 16.6 22.7992 18.823C22.2363 20.4272 22.2384 22.2862 22.8044 24.3483C23.3981 26.5112 24.5103 28.5384 26.0118 30.2355C25.8749 30.3248 25.7364 30.411 25.5969 30.4945C22.0915 32.5953 19.1626 33.0945 16.3801 32.0663C14.994 31.554 13.7287 30.6637 12.7211 29.4914C10.9802 27.4658 10.0697 24.6653 10.1586 21.6057C10.2448 18.6355 11.2917 15.7446 13.03 13.6742C15.1885 11.1039 18.6504 9.44804 22.0649 9.353C24.0117 9.29922 26.7979 9.7295 29.0149 12.0888L31.0726 10.1587C28.7829 7.72219 25.5556 6.43446 21.9865 6.5342C19.9252 6.59165 17.8095 7.11175 15.8679 8.03864C13.9137 8.9718 12.1849 10.2935 10.8678 11.8616C9.77861 13.1593 8.91678 14.6783 8.30633 16.377C7.7147 18.024 7.3891 19.7556 7.33736 21.5243C7.22865 25.2872 8.38003 28.7692 10.5803 31.3285C11.8995 32.8632 13.5662 34.0329 15.4012 34.7107C16.6451 35.1708 17.914 35.4016 19.2175 35.401C21.6849 35.401 24.2751 34.5749 27.0482 32.9133C27.4151 32.6935 27.7752 32.4574 28.1285 32.2063C30.598 34.0903 33.5603 35.093 36.5133 35.0345C36.8305 35.0282 37.1535 35.011 37.4739 34.9843C38.3451 34.9102 39.2294 34.7577 40.1216 34.5274C40.8982 33.4094 41.5735 32.2157 42.1343 30.9598L42.0841 30.8486ZM28.2153 28.4684C26.9515 27.0726 26.0181 25.3943 25.5263 23.6026C25.1145 22.1029 25.093 20.8089 25.4625 19.7556C25.9063 18.4898 27.0383 17.4856 28.2796 17.2569C28.508 17.2151 28.728 17.1937 28.9402 17.1937C29.6829 17.1937 30.3247 17.4512 30.8541 17.9634C31.7358 18.8146 32.168 20.2783 31.9558 21.6914C31.9198 21.9311 31.8722 22.1755 31.8152 22.4172C31.7943 22.505 31.7719 22.5943 31.7483 22.6815C31.1938 24.7525 29.9186 26.8057 28.2153 28.4684Z" fill="var(--fill-0, #E6FCFF)"/>
<path id="Vector_3" d="M28.6459 21.8068C29.1918 21.8068 29.6343 21.3647 29.6343 20.8193C29.6343 20.274 29.1918 19.8319 28.6459 19.8319C28.1001 19.8319 27.6576 20.274 27.6576 20.8193C27.6576 21.3647 28.1001 21.8068 28.6459 21.8068Z" fill="var(--fill-0, #E6FCFF)"/>
</g>
</svg>
