<svg preserveAspectRatio="none" width="100%" height="100%" overflow="visible" style="display: block;" viewBox="0 0 180 76" fill="none" xmlns="http://www.w3.org/2000/svg">
<g id="Vector">
<path d="M61.1091 35.5646C60.021 33.8492 58.1808 33.2819 56.4207 32.701C53.9565 31.8771 51.4123 31.2153 48.9161 30.4724C48.612 30.3778 48.276 30.3103 48.052 30.1347C46.9159 29.2567 45.6358 29.2297 44.1796 29.3783C43.1716 29.4863 42.0835 29.2162 41.0594 28.973C40.2113 28.7704 39.4433 28.7029 38.5632 28.8785C36.355 29.3243 34.0988 29.2162 31.9066 28.811C27.9703 28.0816 24.066 28.6084 20.1617 28.865C19.3296 28.919 18.5135 29.1892 17.6974 29.3918C17.0894 29.5404 16.4974 29.8375 15.8733 29.8645C12.113 30.0806 8.6727 31.2963 5.1364 32.1878C4.73637 32.2959 4.33634 32.4309 3.9363 32.5795C1.84013 33.3224 1.53611 33.2549 0.464023 31.58C0.272007 31.2693 0.160013 30.9181 0 30.5804C2.33619 27.8925 5.77645 27.001 9.32874 26.3932C12.241 25.8934 15.1692 25.3261 18.1295 25.1775C21.0097 25.0424 23.826 24.7723 26.6262 24.205C27.5063 24.0294 28.6104 24.124 29.4424 24.4211C30.8986 24.9479 32.3067 24.8399 33.8108 24.7588C35.4909 24.6643 37.2031 24.8804 38.8832 25.0559C40.8834 25.2586 42.8836 25.5422 44.8837 25.8124C46.0358 25.9609 47.2039 26.0825 48.324 26.3662C50.6762 26.947 52.9964 27.5953 55.3166 28.2437C58.4689 29.1351 61.3491 30.5669 64.0853 32.0797C65.7975 33.0252 67.3336 32.4849 68.9657 32.5795C69.1898 32.593 69.4458 32.2958 69.6858 32.1472C70.6299 31.5799 71.5579 30.9991 72.55 30.3913C73.4141 30.702 74.1662 30.9856 74.9662 31.2693C75.2223 31.1342 75.5743 31.0397 75.7503 30.8371C76.5984 29.8646 77.7185 29.2162 78.9986 28.7299C79.7666 28.4328 80.4867 28.0411 81.1907 27.6494C83.783 26.2311 86.4712 25.083 89.5754 24.5427C92.6637 24.0159 95.656 23.0974 98.6482 22.233C102.681 21.0713 106.841 20.2744 111.113 20.0853C111.641 20.0583 112.185 20.0583 112.713 20.0178C117.914 19.5991 123.114 19.3964 128.315 19.8421C129.051 19.9097 129.803 19.9367 130.555 19.9097C133.995 19.7881 137.371 20.0988 140.636 21.0443C142.124 21.4766 143.516 21.463 144.828 20.531C145.788 19.8422 146.892 19.2749 147.932 18.6535C148.364 18.3969 148.764 18.0592 149.244 17.9106C150.781 17.4784 152.221 16.9246 153.213 15.7765C153.277 15.709 153.373 15.6549 153.469 15.6144C155.469 14.7905 157.421 13.8855 159.485 13.1966C160.445 12.886 161.565 12.967 162.109 11.9945C162.222 11.8054 162.637 11.6703 162.926 11.6433C163.982 11.5758 165.054 11.5082 166.11 11.5622C166.43 11.5757 166.894 11.9539 166.974 12.2241C167.054 12.4942 166.782 13.0615 166.542 13.1156C164.67 13.5478 163.534 14.7365 162.285 15.8441C161.709 16.3573 160.973 16.749 160.285 17.1813C157.885 18.6671 155.469 20.1393 153.069 21.6251C152.893 21.7332 152.733 21.8548 152.589 21.9763C151.773 22.6517 151.805 23.4756 152.685 24.0564C153.933 24.8804 155.181 25.7313 156.477 26.5012C158.285 27.5683 158.861 29.2702 159.437 30.8505C159.933 32.1878 159.101 33.498 158.125 34.6056C156.093 36.9018 153.373 38.4011 150.3 39.5762C148.796 40.157 147.26 40.3326 145.644 40.3731C143.692 40.4272 142.348 39.6573 141.612 38.1985C140.124 35.2539 139.34 32.2013 140.204 28.9866C140.268 28.7299 140.412 28.4733 140.476 28.2032C140.764 26.8524 140.3 26.1501 138.812 25.6908C138.508 25.5963 138.203 25.4882 137.899 25.4612C134.923 25.2586 131.931 24.8398 128.987 24.9749C126.539 25.0829 124.122 24.8534 121.706 24.9479C120.97 24.9749 120.202 24.8939 119.466 24.9884C116.522 25.3396 113.593 25.7583 110.649 26.123C109.913 26.2176 109.161 26.2581 108.425 26.2446C106.697 26.1906 105.049 26.4472 103.417 26.974C102.649 27.2306 101.784 27.3522 100.936 27.4197C99.7523 27.5143 98.6642 27.7304 97.6081 28.2437C96.136 28.9595 94.3278 28.8245 92.8397 29.6214C89.9435 31.1748 86.4392 31.4449 83.4149 32.7686C80.7747 33.9437 78.0385 34.9433 75.3983 36.0914C73.9101 36.7397 73.7661 37.8068 75.1262 38.6442C78.5185 40.7514 81.1427 43.5068 83.879 46.1272C86.7112 48.8287 88.8394 52.0839 89.7034 55.6228C90.5835 59.2698 89.6235 62.8086 86.5672 65.6992C85.4311 66.7662 84.119 67.6983 82.9029 68.7113C81.9748 69.4812 80.9027 69.9675 79.6066 70.2376C78.5185 70.4672 77.4784 71.048 76.5184 71.5748C75.4303 72.1826 74.3262 72.6554 73.0301 72.831C72.198 72.9391 71.3499 73.1282 70.5659 73.3848C69.3498 73.7901 68.1336 73.9926 66.8215 73.8846C65.6054 73.7765 64.4694 74.0197 63.4773 74.6005C60.709 76.1808 57.7008 76.2349 54.5645 75.6811C52.7084 75.3569 51.0282 74.3979 49.0281 74.587C47.3319 73.4794 45.1717 73.1957 43.3476 72.3177C42.7395 72.0206 42.3075 71.4262 41.9235 70.8995C40.7394 69.3056 39.8593 67.5767 38.4192 66.0774C37.2191 64.8348 37.2511 63.1733 37.4911 61.6605C37.8271 59.5264 38.1792 57.3787 39.4593 55.4472C39.6673 55.1365 39.7633 54.7583 40.0193 54.4882C42.3235 51.9218 44.5957 49.3284 46.9799 46.8161C47.828 45.9381 48.66 44.9251 50.1642 44.682C50.4362 44.6415 50.6922 44.3983 50.8842 44.2092C52.7404 42.3452 54.9485 40.8054 57.1407 39.2385C58.5488 38.2525 60.037 37.1855 61.1091 35.5646ZM55.7326 72.804C56.3567 72.4798 57.1567 72.0071 58.3088 71.8855C59.733 71.7369 61.2851 71.6289 62.5332 70.8185C62.8372 70.6159 63.3652 70.5078 63.7333 70.5753C65.3494 70.8184 66.6135 70.1836 67.9576 69.6028C68.9977 69.1571 70.1338 68.9004 71.2219 68.5357C72.006 68.2791 72.79 67.9955 73.5581 67.7118C75.9263 66.8203 77.6865 65.1589 79.8466 64.0649C82.0868 62.9302 83.3829 61.2958 84.551 59.4454C85.7191 57.5679 85.8791 55.6634 84.983 53.7183C84.487 52.6377 83.8949 51.5571 83.1429 50.5981C81.9748 49.0988 80.7267 47.6265 79.3506 46.2623C77.9745 44.9116 76.4384 43.6689 74.8862 42.4398C74.0382 41.7644 73.0301 41.2376 72.086 40.6703C71.3179 40.2111 70.5178 39.7923 69.5898 39.2925C67.3016 40.4001 64.9814 41.3322 62.9172 42.5748C58.6609 45.1277 55.1086 48.3694 51.2843 51.3275C50.1962 52.1785 49.0441 52.9889 48.036 53.8939C45.9078 55.8254 44.4517 58.1082 43.2836 60.553C42.1475 62.9708 42.3555 65.321 43.5396 67.6308C44.1316 68.7789 44.8997 69.9269 46.4039 70.4267C47.892 70.913 49.4281 71.2777 50.9642 71.6694C52.4684 72.0476 53.9885 72.3853 55.7326 72.804ZM144.556 32.674C144.508 33.4439 144.956 34.3489 145.628 34.4299C146.188 34.4975 146.876 34.3489 147.372 34.1058C148.652 33.498 149.868 32.7821 151.101 32.1067C151.549 31.8636 152.013 31.634 152.397 31.3368C153.277 30.6479 153.261 29.5809 152.237 29.0676C151.069 28.4868 149.804 28.014 148.524 27.6223C147.804 27.4062 147.084 27.6628 146.572 28.2301C145.404 29.5674 144.812 31.0666 144.556 32.674Z" fill="var(--fill-0, #052868)"/>
<path d="M151.933 0C152.573 0.0270145 153.085 0.0405349 153.581 0.0810565C157.821 0.486273 162.061 0.675374 166.334 0.553809C167.07 0.526795 167.822 0.580811 168.558 0.675361C169.614 0.810434 170.654 0.945506 171.71 0.607825C171.998 0.513275 172.334 0.499807 172.654 0.513314C174.11 0.526821 175.711 0.121552 176.927 1.13459C178.431 2.40427 179.743 3.72798 179.903 5.72705C180.127 8.69864 179.935 11.6567 179.615 14.6013C179.439 16.2087 179.215 17.8161 179.023 19.4234C178.799 21.2469 178.095 22.9218 176.799 24.3941C176.655 24.5697 176.223 24.6912 175.983 24.6507C175.743 24.5967 175.407 24.2995 175.407 24.1104C175.423 21.9627 175.359 19.8016 175.583 17.6675C175.855 14.9525 175.887 12.2916 175.039 9.64415C174.655 8.46902 174.238 7.38845 172.478 7.2939C171.598 7.25338 171.486 6.1998 170.414 6.1998C168.19 6.1863 165.966 5.90268 163.742 5.90268C160.765 5.91619 157.805 6.18635 154.829 5.7136C152.237 5.30838 151.533 4.6735 151.645 2.49884C151.661 1.72892 151.805 0.945506 151.933 0Z" fill="var(--fill-0, #052868)"/>
</g>
</svg>
